<?xml version="1.0" encoding="UTF-8"?> <svg xmlns="http://www.w3.org/2000/svg" width="170" height="82" viewBox="0 0 170 82" fill="none"><path fill-rule="evenodd" clip-rule="evenodd" d="M72.4779 40.2259C74.5699 39.4187 75.9406 37.3912 75.912 35.1512C75.912 30.5852 72.6713 28.3213 68.2223 28.3213H56.5518V53.1526H69.2373C73.1394 53.1526 76.9651 50.4206 76.9651 46.2439C76.9651 41.279 72.4755 40.2713 72.4755 40.2259H72.4779ZM62.6414 33.4748H67.1692C68.3871 33.4007 69.4355 34.3249 69.5119 35.5429V35.8151C69.4856 37.0879 68.442 38.0981 67.1692 38.0838H62.6032L62.6414 33.4748ZM67.2098 47.9537H62.682V43.0749H67.0928C69.3161 43.0749 70.3716 44.0516 70.3716 45.494C70.3716 47.297 69.0438 47.9537 67.2098 47.9537Z" fill="#A3A3A3" style="fill:#A3A3A3;fill:color(display-p3 0.6392 0.6392 0.6392);fill-opacity:1;"></path><path fill-rule="evenodd" clip-rule="evenodd" d="M90.3933 27.698C83.2123 27.698 78.9973 33.4366 78.9973 40.694C78.9973 47.9513 83.2123 53.6899 90.3933 53.6899C97.5742 53.6899 101.789 47.9919 101.789 40.694C101.789 33.396 97.6124 27.698 90.3933 27.698ZM90.3933 47.7603C86.8804 47.7603 85.1251 44.5985 85.1251 40.6963C85.1251 36.7942 86.8804 33.6706 90.3933 33.6706C93.9061 33.6706 95.702 36.8324 95.702 40.6963C95.702 44.5603 93.9061 47.7603 90.3933 47.7603Z" fill="#A3A3A3" style="fill:#A3A3A3;fill:color(display-p3 0.6392 0.6392 0.6392);fill-opacity:1;"></path><path fill-rule="evenodd" clip-rule="evenodd" d="M115.022 38.079L114.162 37.8832C112.056 37.4533 110.377 36.9065 110.377 35.3852C110.377 33.747 111.977 33.0831 113.383 33.0831C115.322 33.1094 117.161 33.9452 118.458 35.3852L122.322 31.5595C120.567 29.5679 117.715 27.6574 113.266 27.6574C108.036 27.6574 104.055 30.5852 104.055 35.4641C104.055 39.9131 107.256 42.0982 111.16 42.9197L112.017 43.1155C115.258 43.7794 116.466 44.2856 116.466 45.8474C116.466 47.4093 115.139 48.3072 113.109 48.3072C110.69 48.3072 108.502 47.254 106.826 45.1071L102.883 49.0093C105.068 51.6242 107.841 53.6541 113.188 53.6541C117.832 53.6541 122.788 51.0009 122.788 45.5752C122.866 39.9154 118.573 38.8241 115.022 38.0814V38.079Z" fill="#A3A3A3" style="fill:#A3A3A3;fill:color(display-p3 0.6392 0.6392 0.6392);fill-opacity:1;"></path><path fill-rule="evenodd" clip-rule="evenodd" d="M136.682 47.7579C133.95 47.7579 131.101 45.494 131.101 40.5363C131.101 36.1255 133.754 33.6682 136.526 33.6682C138.711 33.6682 140.001 34.6831 141.013 36.4384L146.009 33.1213C143.511 29.3362 140.545 27.7362 136.447 27.7362C128.954 27.7362 124.894 33.5512 124.894 40.5769C124.894 47.9537 129.384 53.7305 136.369 53.7305C141.286 53.7305 143.628 52.0135 146.165 48.3454L141.131 44.9567C140.116 46.5877 139.024 47.7579 136.682 47.7579Z" fill="#A3A3A3" style="fill:#A3A3A3;fill:color(display-p3 0.6392 0.6392 0.6392);fill-opacity:1;"></path><path fill-rule="evenodd" clip-rule="evenodd" d="M162.676 28.3213V37.4533H155.141V28.3213H148.624V53.1454H155.141V43.3495H162.676V53.1454H169.193V28.3213H162.676Z" fill="#A3A3A3" style="fill:#A3A3A3;fill:color(display-p3 0.6392 0.6392 0.6392);fill-opacity:1;"></path><path d="M19.0062 22C8.61565 22 0.192871 30.4228 0.192871 40.8133C0.192871 51.2039 8.61565 59.6267 19.0062 59.6267C29.3968 59.6267 37.8195 51.2039 37.8195 40.8133C37.8195 30.4228 29.3968 22 19.0062 22ZM19.0062 57.8666C9.5876 57.8666 1.9505 50.2296 1.9505 40.811C1.9505 31.3923 9.5876 23.7552 19.0062 23.7552C28.4248 23.7552 36.0619 31.3923 36.0619 40.811C36.0619 50.2296 28.4248 57.8643 19.0062 57.8666Z" fill="#A3A3A3" style="fill:#A3A3A3;fill:color(display-p3 0.6392 0.6392 0.6392);fill-opacity:1;"></path><path d="M26.7746 29.064H25.4874V35.5046H12.5679V29.064H11.2401C4.75405 33.3458 2.96298 42.0719 7.24243 48.5627C8.29319 50.1507 9.64962 51.5143 11.2401 52.5603H12.5679V46.1292H25.4874V52.5699H26.7746C33.2606 48.2928 35.0565 39.5644 30.7794 33.0783C29.7286 31.4855 28.3674 30.1243 26.7746 29.0735V29.0663V29.064ZM10.772 50.029C5.68301 45.5059 5.22211 37.7112 9.74515 32.6222C10.0699 32.264 10.409 31.9201 10.772 31.6001V50.029ZM25.4874 44.331H12.5679V37.2599H25.4874V44.331ZM27.2426 49.9908V31.6001C32.3197 36.159 32.7376 43.968 28.1788 49.0475L28.174 49.0522C27.8779 49.3794 27.5698 49.6875 27.2403 49.986V49.9931L27.2426 49.9908Z" fill="#A3A3A3" style="fill:#A3A3A3;fill:color(display-p3 0.6392 0.6392 0.6392);fill-opacity:1;"></path></svg> 