<?xml version="1.0" encoding="UTF-8"?> <svg xmlns="http://www.w3.org/2000/svg" width="118" height="82" viewBox="0 0 118 82" fill="none"><path d="M38.6223 51.1966H33.4651V71.6368H38.6223V51.1966Z" fill="#A3A3A3" style="fill:#A3A3A3;fill:color(display-p3 0.6392 0.6392 0.6392);fill-opacity:1;"></path><path d="M80.2125 57.0525C80.0046 56.9444 78.3465 55.96 75.8788 55.96C72.5377 55.96 70.2253 58.2808 70.2253 61.4111C70.2253 64.5415 72.4407 66.8678 75.8788 66.8678C78.3021 66.8678 79.9907 65.9057 80.2125 65.7837V71.2708C79.572 71.4511 77.8114 71.9973 75.5073 71.9973C69.7096 71.9973 64.6217 67.9963 64.6217 61.4111C64.6217 55.3057 69.2299 50.8306 75.5073 50.8306C77.9361 50.8306 79.7245 51.4212 80.2125 51.5653V57.0525Z" fill="#A3A3A3" style="fill:#A3A3A3;fill:color(display-p3 0.6392 0.6392 0.6392);fill-opacity:1;"></path><path d="M26.3725 57.0525C26.1646 56.9444 24.5065 55.96 22.0388 55.96C18.6978 55.96 16.3853 58.2808 16.3853 61.4111C16.3853 64.5415 18.6007 66.8678 22.0388 66.8678C24.4622 66.8678 26.1507 65.9057 26.3725 65.7837V71.2708C25.7321 71.4511 23.9714 71.9973 21.6673 71.9973C15.8696 71.9973 10.7817 67.9963 10.7817 61.4111C10.7817 55.3057 15.3899 50.8306 21.6673 50.8306C24.0962 50.8306 25.8846 51.4212 26.3725 51.5653V57.0525Z" fill="#A3A3A3" style="fill:#A3A3A3;fill:color(display-p3 0.6392 0.6392 0.6392);fill-opacity:1;"></path><path d="M96.4411 56.0377C93.3801 56.0377 91.1092 58.4471 91.1092 61.4139C91.1092 64.3807 93.3829 66.7929 96.4411 66.7929C99.4994 66.7929 101.779 64.3862 101.779 61.4139C101.779 58.4416 99.4994 56.0377 96.4411 56.0377ZM107.241 61.4139C107.241 67.2615 102.727 72 96.4384 72C90.1499 72 85.6443 67.2615 85.6443 61.4139C85.6443 55.5663 90.1527 50.8333 96.4384 50.8333C102.724 50.8333 107.241 55.5774 107.241 61.4139Z" fill="#A3A3A3" style="fill:#A3A3A3;fill:color(display-p3 0.6392 0.6392 0.6392);fill-opacity:1;"></path><path d="M58.1835 55.8436C58.1058 55.8186 55.9348 55.2197 54.152 55.2197C52.0863 55.2197 50.9606 55.9129 50.9606 56.8944C50.9606 58.1394 52.4773 58.5747 53.3257 58.8409L54.7481 59.2928C58.0948 60.3575 59.6225 62.6505 59.6225 65.1404C59.6225 70.2754 55.1058 72 51.1603 72C48.4181 72 45.8478 71.4954 45.5927 71.44V66.7347C46.0474 66.8484 48.2101 67.4944 50.4643 67.4944C53.0318 67.4944 54.2102 66.7458 54.2102 65.5868C54.2102 64.5498 53.1899 63.9537 51.9089 63.5516C51.5956 63.4463 51.127 63.2993 50.8081 63.1967C47.9356 62.2873 45.54 60.6015 45.54 57.2161C45.54 53.3925 48.4015 50.825 53.1566 50.825C55.6687 50.825 58.031 51.435 58.1835 51.4766V55.8408V55.8436Z" fill="#A3A3A3" style="fill:#A3A3A3;fill:color(display-p3 0.6392 0.6392 0.6392);fill-opacity:1;"></path><path d="M5.31402 29.2286C5.31402 27.8201 4.16336 26.6777 2.75483 26.6777C1.34631 26.6777 0.192871 27.8201 0.192871 29.2286V34.5938C0.192871 36.0106 1.34354 37.1529 2.75483 37.1529C4.16613 37.1529 5.31402 36.0106 5.31402 34.5938V29.2286Z" fill="#A3A3A3" style="fill:#A3A3A3;fill:color(display-p3 0.6392 0.6392 0.6392);fill-opacity:1;"></path><path d="M19.3825 22.186C19.3825 20.7774 18.2318 19.6323 16.8233 19.6323C15.4148 19.6323 14.2614 20.7774 14.2614 22.186V34.5937C14.2614 36.0106 15.412 37.1529 16.8233 37.1529C18.2346 37.1529 19.3825 36.0106 19.3825 34.5937V22.186Z" fill="#A3A3A3" style="fill:#A3A3A3;fill:color(display-p3 0.6392 0.6392 0.6392);fill-opacity:1;"></path><path d="M33.4483 12.5509C33.4483 11.1424 32.2976 10 30.8891 10C29.4806 10 28.3271 11.1424 28.3271 12.5509V39.6955C28.3271 41.1123 29.4778 42.2547 30.8891 42.2547C32.3004 42.2547 33.4483 41.1123 33.4483 39.6955V12.5509Z" fill="#A3A3A3" style="fill:#A3A3A3;fill:color(display-p3 0.6392 0.6392 0.6392);fill-opacity:1;"></path><path d="M47.5142 22.186C47.5142 20.7774 46.3636 19.6323 44.955 19.6323C43.5465 19.6323 42.3931 20.7774 42.3931 22.186V34.5937C42.3931 36.0106 43.5437 37.1529 44.955 37.1529C46.3663 37.1529 47.5142 36.0106 47.5142 34.5937V22.186Z" fill="#A3A3A3" style="fill:#A3A3A3;fill:color(display-p3 0.6392 0.6392 0.6392);fill-opacity:1;"></path><path d="M61.5662 29.2286C61.5662 27.8201 60.4238 26.6777 59.0209 26.6777C57.6179 26.6777 56.4617 27.8201 56.4617 29.2286V34.5938C56.4617 36.0106 57.6123 37.1529 59.0209 37.1529C60.4294 37.1529 61.5662 36.0106 61.5662 34.5938V29.2286Z" fill="#A3A3A3" style="fill:#A3A3A3;fill:color(display-p3 0.6392 0.6392 0.6392);fill-opacity:1;"></path><path d="M61.5718 29.2286C61.5718 27.8201 60.4212 26.6778 59.0126 26.6778C57.6041 26.6778 56.4507 27.8201 56.4507 29.2286V34.5938C56.4507 36.0106 57.6013 37.153 59.0126 37.153C60.4239 37.153 61.5718 36.0106 61.5718 34.5938V29.2286Z" fill="#A3A3A3" style="fill:#A3A3A3;fill:color(display-p3 0.6392 0.6392 0.6392);fill-opacity:1;"></path><path d="M75.6375 22.186C75.6375 20.7775 74.4868 19.6324 73.0783 19.6324C71.6698 19.6324 70.5164 20.7775 70.5164 22.186V34.5938C70.5164 36.0106 71.667 37.153 73.0783 37.153C74.4896 37.153 75.6375 36.0106 75.6375 34.5938V22.186Z" fill="#A3A3A3" style="fill:#A3A3A3;fill:color(display-p3 0.6392 0.6392 0.6392);fill-opacity:1;"></path><path d="M89.7033 12.5509C89.7033 11.1424 88.5526 10.0001 87.1441 10.0001C85.7356 10.0001 84.5822 11.1424 84.5822 12.5509V39.6955C84.5822 41.1124 85.7328 42.2547 87.1441 42.2547C88.5554 42.2547 89.7033 41.1124 89.7033 39.6955V12.5509Z" fill="#A3A3A3" style="fill:#A3A3A3;fill:color(display-p3 0.6392 0.6392 0.6392);fill-opacity:1;"></path><path d="M103.772 22.186C103.772 20.7775 102.621 19.6324 101.213 19.6324C99.8043 19.6324 98.6509 20.7775 98.6509 22.186V34.5938C98.6509 36.0106 99.8015 37.153 101.213 37.153C102.624 37.153 103.772 36.0106 103.772 34.5938V22.186Z" fill="#A3A3A3" style="fill:#A3A3A3;fill:color(display-p3 0.6392 0.6392 0.6392);fill-opacity:1;"></path><path d="M117.821 29.2286C117.821 27.8201 116.679 26.6778 115.276 26.6778C113.873 26.6778 112.717 27.8201 112.717 29.2286V34.5938C112.717 36.0106 113.867 37.153 115.276 37.153C116.684 37.153 117.821 36.0106 117.821 34.5938V29.2286Z" fill="#A3A3A3" style="fill:#A3A3A3;fill:color(display-p3 0.6392 0.6392 0.6392);fill-opacity:1;"></path><path d="M114.879 68.9446V69.2634H113.967V71.6341H113.593V69.2634H112.675V68.9446H114.877H114.879Z" fill="#A3A3A3" style="fill:#A3A3A3;fill:color(display-p3 0.6392 0.6392 0.6392);fill-opacity:1;"></path><path d="M115.071 68.9446H115.658L116.465 71.1516H116.479L117.258 68.9446H117.832V71.6368H117.45V69.4298H117.436L116.618 71.6368H116.263L115.464 69.4298H115.448V71.6368H115.071V68.9446Z" fill="#A3A3A3" style="fill:#A3A3A3;fill:color(display-p3 0.6392 0.6392 0.6392);fill-opacity:1;"></path></svg> 