<?xml version="1.0" encoding="UTF-8"?> <svg xmlns="http://www.w3.org/2000/svg" width="77" height="82" viewBox="0 0 77 82" fill="none"><path d="M23.5202 55.5192L23.3859 55.6535C21.1935 57.8833 18.6598 59.0654 16.0491 59.0654C10.5988 59.0654 6.64096 54.9755 6.64096 49.3337C6.64096 43.6918 10.5988 39.6085 16.0491 39.6085C18.6598 39.6085 21.1957 40.7972 23.3859 43.0315L23.5202 43.1657L27.0268 38.9283L26.9322 38.8139C24.0155 35.3711 20.5155 33.6937 16.2208 33.6937C11.9262 33.6937 7.96172 35.1488 5.11769 37.7661C2.02933 40.5991 0.398193 44.601 0.398193 49.3403C0.398193 54.0796 2.03153 58.0815 5.11769 60.9211C7.96392 63.5516 11.902 65 16.2208 65C20.5397 65 24.0221 63.3227 26.9322 59.8799L27.0268 59.772L23.5202 55.5346V55.5214V55.5192Z" fill="#A3A3A3" style="fill:#A3A3A3;fill:color(display-p3 0.6392 0.6392 0.6392);fill-opacity:1;"></path><path d="M30.5554 64.4101H36.7497V34.178H30.5554V64.4101Z" fill="#A3A3A3" style="fill:#A3A3A3;fill:color(display-p3 0.6392 0.6392 0.6392);fill-opacity:1;"></path><path d="M61.0077 57.8393C59.3567 58.8431 57.818 59.3516 56.4401 59.3516C54.4391 59.3516 53.5366 58.2972 53.5366 55.9462V39.9056H59.8454V34.2132H53.5366V24.805L47.4699 28.0519V34.2066H42.2354V39.899H47.4699V56.961C47.4699 61.6101 50.2215 64.7865 54.3379 64.8701C57.1269 64.9273 58.8108 64.0953 59.8322 63.4855L59.8894 63.4415L61.3819 57.6104L61.0143 57.8327L61.0077 57.8393Z" fill="#A3A3A3" style="fill:#A3A3A3;fill:color(display-p3 0.6392 0.6392 0.6392);fill-opacity:1;"></path><path d="M66.1367 64.4101H72.3311V34.178H66.1367V64.4101Z" fill="#A3A3A3" style="fill:#A3A3A3;fill:color(display-p3 0.6392 0.6392 0.6392);fill-opacity:1;"></path><path fill-rule="evenodd" clip-rule="evenodd" d="M76.038 28.8201C70.3719 20.7899 60.9571 16 51.3773 16C41.7974 16 32.3892 20.7899 26.7298 28.8201L26.437 29.234H33.5779L33.6549 29.1503C38.5153 24.138 44.8549 21.4833 51.3773 21.4833C57.8996 21.4833 64.2414 24.1314 69.1062 29.1503L69.1832 29.234H76.3175L76.0313 28.8201H76.038Z" fill="#A3A3A3" style="fill:#A3A3A3;fill:color(display-p3 0.6392 0.6392 0.6392);fill-opacity:1;"></path></svg> 