<?xml version="1.0" encoding="UTF-8"?> <svg xmlns="http://www.w3.org/2000/svg" width="145" height="82" viewBox="0 0 145 82" fill="none"><path d="M112.123 14.0001C111.258 13.9946 110.337 14.2373 109.781 14.6072C108.356 15.5588 103.119 31.849 100.936 40.2195C100.936 40.2195 100.463 41.9621 99.8372 45.9722C99.7366 46.6232 99.4036 49.1729 99.259 49.9615C98.7156 52.9159 96.603 54.5012 94.7783 54.1531C92.4992 53.7184 92.1731 50.3384 92.7837 47.8223C93.452 45.0645 95.7207 41.9505 98.334 42.7056C99.5932 42.9993 100.244 42.8513 100.329 42.0118C100.436 40.9272 99.1434 40.2773 99.1434 40.2773C94.1319 37.7554 89.6547 41.8812 88.5053 47.7067C87.1628 54.5046 91.3637 59.9093 98.1894 56.0321C100.326 54.8192 100.211 57.6521 105.012 57.4775C108.503 57.1376 110.495 54.559 108.683 53.1414C107.498 52.2128 106.699 54.0317 104.723 53.7773C100.501 53.235 105.227 40.9792 107.671 33.3395C109.757 26.8236 112.079 22.144 114.06 16.862C114.856 14.738 113.565 14.0092 112.123 14.0001ZM35.8641 15.3877C28.6187 15.5797 15.1688 22.4953 5.01936 30.5065C0.857783 34.1246 -1.53926 34.9837 1.17461 37.878C3.58669 40.2901 5.13499 38.4562 5.13499 38.4562C7.42681 36.6465 12.3724 31.5888 15.6286 29.1767C20.2654 25.7413 26.6679 20.79 32.3373 19.4637C36.8354 18.3236 38.2021 19.6498 37.5985 24.2335C37.2435 28.1673 34.2163 37.0108 34.2163 37.0108C34.2163 37.0108 29.561 39.0956 28.1746 39.6125C27.0911 40.0149 25.9579 39.7408 25.833 42.2142C25.7775 44.8668 27.3871 43.8677 28.4636 43.4572C29.2962 43.1392 31.2596 42.1991 31.9904 41.8962C32.5327 41.4741 33.1305 41.8349 32.8287 42.6189C32.2864 44.3684 31.3024 47.2176 29.4465 51.3202C27.0946 56.9294 22.8775 64.5947 22.3352 66.5257C22.3953 67.7919 23.7748 67.9734 25.6018 68C27.2819 67.8705 28.0589 66.6991 28.0589 66.6991C28.0589 66.6991 30.2478 61.9918 33.6092 53.7195C36.0502 47.7113 37.6494 42.7484 38.3212 40.5086C38.6832 39.1823 39.4637 38.9002 40.4893 38.6585C42.0226 38.1555 44.1745 37.4802 45.4904 37.242C48.8159 36.421 49.7722 36.598 50.2024 34.2934C50.5018 32.6908 49.7977 31.9519 49.7977 31.9519C49.7977 31.9519 42.551 34.2113 41.0964 34.6114C39.8302 35.1537 40.0557 33.8309 40.0557 33.8309C40.0557 33.8309 39.8788 34.6669 40.6628 31.2292C43.0401 20.7715 41.656 17.9882 39.7666 16.3994C38.8699 15.658 37.5361 15.3434 35.8641 15.3877ZM134.122 33.9465C132.878 33.8925 130.039 36.0033 131.144 41.3758C129.637 47.0441 118.135 56.9364 116.604 52.939C116.23 51.9654 117.237 50.365 119.87 49.8169C124.212 48.9116 123.849 46.2116 121.778 45.9433C118.522 45.5212 117.624 45.5224 113.742 44.6135C112.211 44.4516 112.256 42.4165 114.06 42.4454C114.806 42.4154 116.667 42.6721 120.651 42.8212C124.819 42.9773 125.645 39.735 125.478 37.7335C121.224 38.6516 120.216 38.8898 116.546 38.8898C112.695 38.8898 107.931 39.9536 107.845 43.3416C107.758 46.7076 112.176 47.4673 114.465 48.1114C115.098 48.2629 115.32 48.7913 114.898 49.1232C113.92 49.9037 111.721 50.9247 111.458 52.7656C111.086 55.3719 113.453 57.4255 116.459 57.3619C120.462 57.2787 124.901 55.58 129.15 50.4818C130.35 49.0422 131.702 46.6105 132.532 45.5386C132.731 45.1524 133.291 44.9604 133.544 44.9893C134.302 45.157 135.394 45.7259 135.249 46.5504C135.028 47.8119 131.575 51.7561 133.862 54.1242C135.267 55.5789 138.82 56.608 141.638 54.5578C144.276 52.6395 143.348 50.8981 142.303 50.7709C141.556 50.6807 139.454 53.3056 137.764 51.4358C136.362 49.8829 139.703 46.6833 140.366 45.5386C141.322 43.8874 137.598 42.6166 136.03 40.5664C135.018 39.2182 137.641 35.1005 134.353 34.0043C134.286 33.982 134.205 33.9501 134.122 33.9465ZM141.754 36.0279C141.091 36.0279 140.516 36.2534 140.048 36.7217C139.577 37.1923 139.354 37.7647 139.354 38.4272C139.354 39.0968 139.582 39.6633 140.048 40.1328C140.516 40.6046 141.086 40.8555 141.754 40.8555C142.422 40.8555 142.989 40.6046 143.459 40.1328C143.93 39.6599 144.182 39.0944 144.182 38.4272C144.182 37.7624 143.93 37.19 143.459 36.7217C142.989 36.2534 142.422 36.0279 141.754 36.0279ZM141.754 36.3459C142.331 36.3459 142.82 36.5459 143.228 36.9529C143.633 37.3577 143.835 37.8537 143.835 38.4272C143.835 39.0054 143.633 39.4945 143.228 39.9015C142.822 40.3086 142.333 40.5086 141.754 40.5086C141.174 40.5086 140.685 40.3086 140.279 39.9015C139.877 39.4945 139.672 39.0054 139.672 38.4272C139.672 37.8537 139.875 37.3577 140.279 36.9529C140.687 36.5459 141.179 36.3459 141.754 36.3459ZM140.771 37.0975V39.7281H141.233V38.7163H141.609C141.863 38.7163 142.029 38.7175 142.129 38.7741C142.301 38.8724 142.39 39.0759 142.39 39.3812V39.6125L142.418 39.6992C142.421 39.7108 142.416 39.7188 142.418 39.7281H142.852L142.823 39.6992C142.813 39.6772 142.827 39.6541 142.823 39.5836C142.819 39.5142 142.794 39.4413 142.794 39.3812V39.1788C142.794 39.0459 142.746 38.9141 142.65 38.7741C142.554 38.6354 142.422 38.5463 142.216 38.514C142.379 38.4874 142.501 38.4573 142.592 38.3983C142.763 38.2862 142.852 38.0861 142.852 37.8491C142.852 37.5161 142.723 37.2987 142.447 37.1842C142.294 37.1206 142.025 37.0975 141.696 37.0975H140.771ZM141.233 37.4155H141.638C141.903 37.4155 142.096 37.4663 142.216 37.5311C142.336 37.597 142.39 37.715 142.39 37.9069C142.39 38.1093 142.316 38.2399 142.129 38.3116C142.029 38.3509 141.869 38.3694 141.667 38.3694H141.233V37.4155ZM61.939 38.196C58.4006 39.2505 56.6083 39.121 52.8619 39.121C48.9304 39.121 43.616 39.6691 43.8426 43.4572C44.0334 46.6429 48.5211 47.5321 50.8383 47.7934C51.5021 47.7321 51.6963 48.3577 51.2141 48.6895C50.1688 49.7487 48.9755 51.2045 48.8148 52.3897C48.4644 54.9545 49.778 57.2162 53.0353 57.1595C56.5332 57.0994 57.6791 54.5602 63.5289 51.0022C65.1616 50.0089 67.2025 48.3322 68.0385 48.1981C68.36 48.1981 68.8202 48.3033 68.7901 48.9208C68.2952 51.2554 67.7541 52.828 68.3565 54.818C68.782 56.2195 70.6333 57.1017 71.97 56.09C74.2005 54.4017 74.2225 53.4189 77.1156 49.6146C77.5943 48.9856 79.3681 46.1086 80.1798 46.4925C80.854 46.8105 80.6516 47.7506 80.5267 48.4872C79.9185 52.0486 78.3737 57.681 85.4122 56.8127C87.0853 56.6068 88.4475 55.4667 87.1755 54.2688C86.4066 53.5438 85.5393 54.0583 84.5738 53.8351C82.3155 53.3148 87.904 43.0259 85.2387 41.1157C81.4911 38.4307 78.0164 43.1901 75.41 46.666C74.3821 48.0362 73.6201 47.4384 72.9529 45.5097C72.2094 43.3636 67.7645 44.9408 65.2056 46.2613C61.1238 48.3669 53.5649 55.4124 52.8619 51.8983C52.7405 51.2912 53.7442 49.9349 55.5792 49.2677C57.7311 48.4849 60.1467 47.7865 60.1467 46.4925C60.1467 45.4912 59.5489 44.78 58.9036 44.8159C55.9007 44.9824 52.4063 45.7698 48.4101 44.6713C47.4989 44.6644 47.1 42.3784 49.7977 42.6767C50.5123 42.7565 52.108 42.8744 58.152 42.9947C62.4096 43.0803 62.5102 39.8888 61.939 38.196Z" fill="#A3A3A3" style="fill:#A3A3A3;fill:color(display-p3 0.6392 0.6392 0.6392);fill-opacity:1;"></path></svg> 