<?xml version="1.0" encoding="UTF-8"?> <svg xmlns="http://www.w3.org/2000/svg" width="127" height="82" viewBox="0 0 127 82" fill="none"><path d="M57.1101 35.3168C57.0982 35.2384 57.0935 35.1529 57.0935 35.065C57.0935 34.5473 57.3025 33.9347 57.8178 33.4811C58.0078 33.3149 58.2381 33.2294 58.4447 33.2412C58.5706 33.2484 58.687 33.2887 58.782 33.3695C59.0622 33.6069 58.9292 34.2006 58.6466 34.6115C58.3355 35.0651 57.8107 35.4545 57.331 35.5519C57.236 35.5685 57.1505 35.5281 57.1125 35.3168H57.1101Z" fill="#A3A3A3" style="fill:#A3A3A3;fill:color(display-p3 0.6392 0.6392 0.6392);fill-opacity:1;"></path><path d="M89.2785 45.7728C89.1384 45.723 88.9959 45.6185 88.9769 45.5092C88.9532 45.438 88.9627 45.3596 88.9959 45.2931C89.516 44.2482 89.8865 42.9184 88.7252 42.3698C88.5139 42.27 88.2835 42.2226 88.0365 42.2249C86.9679 42.2344 85.6047 43.1677 84.3485 44.6971C83.0804 46.2383 82.3965 47.808 82.3727 49.3373C82.3632 49.8812 82.5722 50.5508 83.0566 50.8026C84.1467 51.3725 85.4647 50.5247 86.417 49.7458C87.0486 49.2328 87.5687 48.7009 88.0294 48.0193C88.5304 47.2808 88.8986 46.7916 89.2999 45.9414C89.3569 45.8274 89.3284 45.7918 89.2809 45.7728H89.2785ZM89.2785 45.7728C89.1384 45.723 88.9959 45.6185 88.9769 45.5092C88.9532 45.438 88.9627 45.3596 88.9959 45.2931C89.516 44.2482 89.8865 42.9184 88.7252 42.3698C88.5139 42.27 88.2835 42.2226 88.0365 42.2249C86.9679 42.2344 85.6047 43.1677 84.3485 44.6971C83.0804 46.2383 82.3965 47.808 82.3727 49.3373C82.3632 49.8812 82.5722 50.5508 83.0566 50.8026C84.1467 51.3725 85.4647 50.5247 86.417 49.7458C87.0486 49.2328 87.5687 48.7009 88.0294 48.0193C88.5304 47.2808 88.8986 46.7916 89.2999 45.9414C89.3569 45.8274 89.3284 45.7918 89.2809 45.7728H89.2785ZM63.6358 21.3437C31.294 21.3437 5.079 29.8952 5.079 40.4462C5.079 50.9973 31.294 59.5512 63.6358 59.5512C95.9777 59.5512 122.188 50.9973 122.188 40.4462C122.188 29.8952 95.9753 21.3437 63.6358 21.3437ZM33.1036 53.5953C29.5913 53.619 26.497 51.4699 26.1431 47.751C25.946 45.6873 26.5326 43.8516 27.7129 42.3389C28.7578 40.9901 30.5269 39.8692 32.0254 39.5961C32.5122 39.5058 33.1677 39.5628 33.4384 39.881C33.8635 40.3702 33.74 40.9069 33.3173 41.123C32.175 41.7025 30.8001 42.6904 30.1185 44.0393C29.5675 45.1411 29.4559 46.4686 30.299 47.7344C31.7096 49.8432 35.6422 49.9001 39.2969 46.5375C40.2017 45.7158 41.0115 44.9227 41.8356 43.987C43.4456 42.1632 43.9823 41.5006 46.122 38.5607C46.1481 38.5274 46.1552 38.4823 46.1434 38.4609C46.1268 38.4229 46.0959 38.4134 46.0341 38.4087C44.6045 38.4467 43.3601 38.8694 42.149 39.7647C41.7999 40.0164 41.2988 39.9808 41.078 39.6507C40.8334 39.2755 41.0091 38.7887 41.4128 38.5132C43.3601 37.1714 45.4879 36.9292 47.6608 36.5659C47.6585 36.5659 47.8128 36.573 47.9363 36.4091C48.8292 35.274 49.5037 34.2529 50.4536 33.1058C51.4106 31.9422 52.6502 30.876 53.5954 30.0733C54.9157 28.95 55.7612 28.5724 56.6208 28.107C56.8464 27.9906 56.5899 27.8505 56.5234 27.8505C51.7193 26.9576 46.7299 25.8011 41.959 27.5489C38.6558 28.7695 37.2095 31.3628 37.9053 33.0964C38.4016 34.3241 40.0331 34.5259 41.5625 33.785C42.8947 33.1343 44.0275 32.1369 44.8396 30.8973C45.3075 30.1873 46.2882 30.7002 45.7587 31.9327C44.3623 35.1814 41.6954 37.758 38.4491 37.8672C35.6849 37.9575 33.9015 35.9437 33.9086 33.4573C33.9181 28.5582 39.4275 25.3309 45.2172 24.8488C46.0887 24.7776 46.9531 24.7419 47.8152 24.7396C53.8447 24.7206 59.6557 26.219 65.7138 26.9481C71.0166 27.5845 76.1033 27.5964 81.4323 26.3853C82.0616 26.2499 82.5057 26.6465 82.4653 27.2782C82.4131 28.1901 81.7007 29.0664 79.9434 30.0139C77.9486 31.0992 75.8587 31.4269 73.6763 31.4459C68.3996 31.4886 63.4862 29.4535 58.4019 28.3587C58.409 28.5796 58.466 28.8432 58.2808 28.9809C55.4643 31.0374 52.9186 33.1272 51.2111 36.06C51.1541 36.1289 51.185 36.193 51.2847 36.1859C52.7666 36.1076 54.0964 36.0696 55.4785 35.9603C55.7208 35.9413 55.7303 35.8819 55.7089 35.7062C55.5878 34.6946 55.8846 33.5404 56.7847 32.7496C57.7037 31.9327 58.8555 31.8401 59.6178 32.429C60.4869 33.0987 60.4085 34.3027 59.936 35.2051C59.4515 36.1218 58.6536 36.6134 57.8866 36.8508C57.8866 36.8508 57.7275 36.8841 57.7512 37.029C57.7821 37.2617 58.8246 37.834 58.9148 37.986C59.0003 38.1308 58.9576 38.3564 58.7985 38.5298C58.6868 38.6557 58.5135 38.772 58.2926 38.7673C58.1121 38.7625 58.0029 38.7032 57.7749 38.5797C57.3071 38.3279 56.7206 37.9147 56.3311 37.4303C56.1981 37.2641 56.1316 37.2617 55.7991 37.2807C54.303 37.3662 51.971 37.587 50.3894 37.7841C50.0071 37.8316 49.9501 37.9005 49.8717 38.0335C47.3521 42.1466 44.6639 46.585 41.7097 49.5534C38.5418 52.738 35.9082 53.5763 33.1131 53.5977L33.1036 53.5953ZM101.428 33.6022C100.939 34.4381 91.5179 48.6392 90.9219 50.1091C90.7319 50.5746 90.7105 50.9284 90.9029 51.1849C91.3944 51.8451 92.4916 51.4604 93.1803 50.9854C95.2226 49.5914 96.6331 47.9077 98.2005 46.4306C98.2907 46.3641 98.4451 46.338 98.5519 46.4259C98.7823 46.6396 99.1195 46.9151 99.3523 47.1573C99.4615 47.2737 99.4211 47.39 99.3641 47.4613C97.8324 49.3112 96.1392 51.0614 94.5196 52.2963C91.9976 54.2293 89.4851 54.7185 88.2408 53.4813C87.7753 53.0206 87.5235 52.3604 87.4903 51.8047C87.476 51.5031 87.3194 51.4865 87.1721 51.629C85.6855 53.0847 83.1041 54.6972 80.7531 53.5502C78.7892 52.5884 78.3356 50.2706 78.7037 48.3138C78.7108 48.2711 78.6681 47.9956 78.4282 48.1595C77.9319 48.5157 77.3905 48.803 76.8181 49.0144C76.0012 49.316 75.6165 49.43 74.859 49.4205C73.9043 49.4157 73.0447 49.0144 72.4391 48.0787C72.1019 47.5729 71.9618 46.8035 71.9285 46.2406C71.9261 46.1789 71.843 46.0673 71.7528 46.2098C70.1498 48.6344 68.6513 50.983 67.0626 53.4481C66.9819 53.562 66.9083 53.6357 66.7444 53.6428C65.7613 53.6428 64.6831 53.6428 63.6002 53.6451C63.4031 53.6451 63.3153 53.5003 63.4174 53.3151C63.9754 52.2464 67.027 47.846 69.0978 44.0986C69.6701 43.0703 69.5561 42.5408 69.1975 42.3104C68.7535 42.0278 67.8724 42.4553 67.1268 43.0181C65.094 44.5427 63.3889 46.9175 62.5221 47.979C62.0115 48.6035 61.5318 49.5249 60.1996 50.9569C58.105 53.2082 55.3266 54.5024 52.6502 53.6072C51.1897 53.1203 50.1306 51.9543 49.7269 50.5295C49.6461 50.2516 49.4894 50.1756 49.3398 50.3585C48.9052 50.8904 48.0218 51.6788 47.2832 52.1752C47.2025 52.2322 47.003 52.3485 46.8321 52.2654C46.6777 52.1965 46.1267 51.4295 46.0199 51.2087C45.9391 51.0472 46.0104 50.8691 46.1054 50.7859C47.1621 49.8669 47.7392 49.3468 48.1999 48.7745C48.5419 48.3494 48.8055 47.8674 49.1142 47.0979C49.7554 45.495 51.2206 42.498 54.1368 40.9521C55.2529 40.3607 56.381 39.9357 57.6301 39.7932C58.1715 39.7338 58.6132 39.8027 58.77 40.2183C58.8317 40.394 58.9813 40.7763 59.0739 41.0542C59.1309 41.2252 59.0905 41.3534 58.8863 41.4318C57.1646 42.0801 55.4382 43.0846 54.2437 44.6638C52.8924 46.4615 52.5243 48.6249 53.4315 49.8669C54.0917 50.7669 55.1603 50.926 56.1862 50.6031C57.7441 50.1163 59.0716 48.6771 59.7531 47.0837C60.4964 45.3406 60.6152 43.2793 60.069 41.4674C59.9787 41.1539 60.0595 40.9117 60.2637 40.7431C60.6793 40.4106 61.2492 40.1518 61.4131 40.0615C61.7669 39.8644 62.1896 40.0093 62.3915 40.299C62.959 41.1349 63.2678 42.3104 63.2986 43.5239C63.3343 43.7804 63.4435 43.7875 63.5694 43.6545C64.5858 42.5811 65.5333 41.4389 66.6162 40.5768C67.6064 39.7956 68.8746 39.1591 70.062 39.1852C71.5913 39.2185 72.3583 40.2491 72.3037 42.0824C72.2966 42.3175 72.47 42.3009 72.5816 42.1418C73.0399 41.4982 73.3415 41.1753 73.8711 40.7407C74.9278 39.8763 76.0107 39.4868 77.1435 39.5652C78.5351 39.6649 79.6488 40.9283 79.4209 42.3579C79.2736 43.2817 78.7702 44.0939 77.9105 44.5142C77.1839 44.8657 76.3337 44.8063 75.74 44.2791C75.2532 43.835 75.0964 43.2057 75.2247 42.5716C75.2508 42.441 75.0798 42.3175 74.935 42.4648C73.5742 43.8683 73.4745 45.6802 74.365 46.4971C75.3458 47.3972 76.8158 46.794 77.8892 46.1005C79.8531 44.83 81.3753 43.1083 83.1374 41.7809C84.3082 40.9022 85.638 40.1209 87.1317 39.9214C87.9581 39.8122 88.7537 39.8715 89.5682 40.1993C90.6369 40.6267 91.3137 41.5196 91.3992 42.2962C91.4182 42.5241 91.5939 42.5503 91.7364 42.3508C92.5818 41.0423 97.1247 34.3027 97.4976 33.595C97.6116 33.3742 97.7351 33.3433 97.9773 33.3433C98.9865 33.3433 100.257 33.3433 101.226 33.3433C101.414 33.3433 101.501 33.4502 101.416 33.595L101.428 33.6022ZM88.7252 42.3722C88.5139 42.2724 88.2835 42.2249 88.0365 42.2273C86.9679 42.2368 85.6047 43.1701 84.3485 44.6994C83.0804 46.2406 82.3965 47.8104 82.3727 49.3397C82.3632 49.8835 82.5722 50.5532 83.0566 50.8049C84.1467 51.3749 85.4647 50.5271 86.417 49.7482C87.0486 49.2352 87.5687 48.7033 88.0294 48.0217C88.5304 47.2832 88.8986 46.794 89.2999 45.9438C89.3569 45.8298 89.3284 45.7942 89.2809 45.7752C89.1408 45.7253 88.9983 45.6208 88.9793 45.5116C88.9555 45.4403 88.965 45.362 88.9983 45.2955C89.5184 44.2506 89.8889 42.9207 88.7276 42.3722H88.7252ZM63.6358 21.3437C31.294 21.3437 5.079 29.8952 5.079 40.4462C5.079 50.9973 31.294 59.5512 63.6358 59.5512C95.9777 59.5512 122.188 50.9973 122.188 40.4462C122.188 29.8952 95.9753 21.3437 63.6358 21.3437ZM33.1036 53.5953C29.5913 53.619 26.497 51.4699 26.1431 47.751C25.946 45.6873 26.5326 43.8516 27.7129 42.3389C28.7578 40.9901 30.5269 39.8692 32.0254 39.5961C32.5122 39.5058 33.1677 39.5628 33.4384 39.881C33.8635 40.3702 33.74 40.9069 33.3173 41.123C32.175 41.7025 30.8001 42.6904 30.1185 44.0393C29.5675 45.1411 29.4559 46.4686 30.299 47.7344C31.7096 49.8432 35.6422 49.9001 39.2969 46.5375C40.2017 45.7158 41.0115 44.9227 41.8356 43.987C43.4456 42.1632 43.9823 41.5006 46.122 38.5607C46.1481 38.5274 46.1552 38.4823 46.1434 38.4609C46.1268 38.4229 46.0959 38.4134 46.0341 38.4087C44.6045 38.4467 43.3601 38.8694 42.149 39.7647C41.7999 40.0164 41.2988 39.9808 41.078 39.6507C40.8334 39.2755 41.0091 38.7887 41.4128 38.5132C43.3601 37.1714 45.4879 36.9292 47.6608 36.5659C47.6585 36.5659 47.8128 36.573 47.9363 36.4091C48.8292 35.274 49.5037 34.2529 50.4536 33.1058C51.4106 31.9422 52.6502 30.876 53.5954 30.0733C54.9157 28.95 55.7612 28.5724 56.6208 28.107C56.8464 27.9906 56.5899 27.8505 56.5234 27.8505C51.7193 26.9576 46.7299 25.8011 41.959 27.5489C38.6558 28.7695 37.2095 31.3628 37.9053 33.0964C38.4016 34.3241 40.0331 34.5259 41.5625 33.785C42.8947 33.1343 44.0275 32.1369 44.8396 30.8973C45.3075 30.1873 46.2882 30.7002 45.7587 31.9327C44.3623 35.1814 41.6954 37.758 38.4491 37.8672C35.6849 37.9575 33.9015 35.9437 33.9086 33.4573C33.9181 28.5582 39.4275 25.3309 45.2172 24.8488C46.0887 24.7776 46.9531 24.7419 47.8152 24.7396C53.8447 24.7206 59.6557 26.219 65.7138 26.9481C71.0166 27.5845 76.1033 27.5964 81.4323 26.3853C82.0616 26.2499 82.5057 26.6465 82.4653 27.2782C82.4131 28.1901 81.7007 29.0664 79.9434 30.0139C77.9486 31.0992 75.8587 31.4269 73.6763 31.4459C68.3996 31.4886 63.4862 29.4535 58.4019 28.3587C58.409 28.5796 58.466 28.8432 58.2808 28.9809C55.4643 31.0374 52.9186 33.1272 51.2111 36.06C51.1541 36.1289 51.185 36.193 51.2847 36.1859C52.7666 36.1076 54.0964 36.0696 55.4785 35.9603C55.7208 35.9413 55.7303 35.8819 55.7089 35.7062C55.5878 34.6946 55.8846 33.5404 56.7847 32.7496C57.7037 31.9327 58.8555 31.8401 59.6178 32.429C60.4869 33.0987 60.4085 34.3027 59.936 35.2051C59.4515 36.1218 58.6536 36.6134 57.8866 36.8508C57.8866 36.8508 57.7275 36.8841 57.7512 37.029C57.7821 37.2617 58.8246 37.834 58.9148 37.986C59.0003 38.1308 58.9576 38.3564 58.7985 38.5298C58.6868 38.6557 58.5135 38.772 58.2926 38.7673C58.1121 38.7625 58.0029 38.7032 57.7749 38.5797C57.3071 38.3279 56.7206 37.9147 56.3311 37.4303C56.1981 37.2641 56.1316 37.2617 55.7991 37.2807C54.303 37.3662 51.971 37.587 50.3894 37.7841C50.0071 37.8316 49.9501 37.9005 49.8717 38.0335C47.3521 42.1466 44.6639 46.585 41.7097 49.5534C38.5418 52.738 35.9082 53.5763 33.1131 53.5977L33.1036 53.5953ZM101.428 33.6022C100.939 34.4381 91.5179 48.6392 90.9219 50.1091C90.7319 50.5746 90.7105 50.9284 90.9029 51.1849C91.3944 51.8451 92.4916 51.4604 93.1803 50.9854C95.2226 49.5914 96.6331 47.9077 98.2005 46.4306C98.2907 46.3641 98.4451 46.338 98.5519 46.4259C98.7823 46.6396 99.1195 46.9151 99.3523 47.1573C99.4615 47.2737 99.4211 47.39 99.3641 47.4613C97.8324 49.3112 96.1392 51.0614 94.5196 52.2963C91.9976 54.2293 89.4851 54.7185 88.2408 53.4813C87.7753 53.0206 87.5235 52.3604 87.4903 51.8047C87.476 51.5031 87.3194 51.4865 87.1721 51.629C85.6855 53.0847 83.1041 54.6972 80.7531 53.5502C78.7892 52.5884 78.3356 50.2706 78.7037 48.3138C78.7108 48.2711 78.6681 47.9956 78.4282 48.1595C77.9319 48.5157 77.3905 48.803 76.8181 49.0144C76.0012 49.316 75.6165 49.43 74.859 49.4205C73.9043 49.4157 73.0447 49.0144 72.4391 48.0787C72.1019 47.5729 71.9618 46.8035 71.9285 46.2406C71.9261 46.1789 71.843 46.0673 71.7528 46.2098C70.1498 48.6344 68.6513 50.983 67.0626 53.4481C66.9819 53.562 66.9083 53.6357 66.7444 53.6428C65.7613 53.6428 64.6831 53.6428 63.6002 53.6451C63.4031 53.6451 63.3153 53.5003 63.4174 53.3151C63.9754 52.2464 67.027 47.846 69.0978 44.0986C69.6701 43.0703 69.5561 42.5408 69.1975 42.3104C68.7535 42.0278 67.8724 42.4553 67.1268 43.0181C65.094 44.5427 63.3889 46.9175 62.5221 47.979C62.0115 48.6035 61.5318 49.5249 60.1996 50.9569C58.105 53.2082 55.3266 54.5024 52.6502 53.6072C51.1897 53.1203 50.1306 51.9543 49.7269 50.5295C49.6461 50.2516 49.4894 50.1756 49.3398 50.3585C48.9052 50.8904 48.0218 51.6788 47.2832 52.1752C47.2025 52.2322 47.003 52.3485 46.8321 52.2654C46.6777 52.1965 46.1267 51.4295 46.0199 51.2087C45.9391 51.0472 46.0104 50.8691 46.1054 50.7859C47.1621 49.8669 47.7392 49.3468 48.1999 48.7745C48.5419 48.3494 48.8055 47.8674 49.1142 47.0979C49.7554 45.495 51.2206 42.498 54.1368 40.9521C55.2529 40.3607 56.381 39.9357 57.6301 39.7932C58.1715 39.7338 58.6132 39.8027 58.77 40.2183C58.8317 40.394 58.9813 40.7763 59.0739 41.0542C59.1309 41.2252 59.0905 41.3534 58.8863 41.4318C57.1646 42.0801 55.4382 43.0846 54.2437 44.6638C52.8924 46.4615 52.5243 48.6249 53.4315 49.8669C54.0917 50.7669 55.1603 50.926 56.1862 50.6031C57.7441 50.1163 59.0716 48.6771 59.7531 47.0837C60.4964 45.3406 60.6152 43.2793 60.069 41.4674C59.9787 41.1539 60.0595 40.9117 60.2637 40.7431C60.6793 40.4106 61.2492 40.1518 61.4131 40.0615C61.7669 39.8644 62.1896 40.0093 62.3915 40.299C62.959 41.1349 63.2678 42.3104 63.2986 43.5239C63.3343 43.7804 63.4435 43.7875 63.5694 43.6545C64.5858 42.5811 65.5333 41.4389 66.6162 40.5768C67.6064 39.7956 68.8746 39.1591 70.062 39.1852C71.5913 39.2185 72.3583 40.2491 72.3037 42.0824C72.2966 42.3175 72.47 42.3009 72.5816 42.1418C73.0399 41.4982 73.3415 41.1753 73.8711 40.7407C74.9278 39.8763 76.0107 39.4868 77.1435 39.5652C78.5351 39.6649 79.6488 40.9283 79.4209 42.3579C79.2736 43.2817 78.7702 44.0939 77.9105 44.5142C77.1839 44.8657 76.3337 44.8063 75.74 44.2791C75.2532 43.835 75.0964 43.2057 75.2247 42.5716C75.2508 42.441 75.0798 42.3175 74.935 42.4648C73.5742 43.8683 73.4745 45.6802 74.365 46.4971C75.3458 47.3972 76.8158 46.794 77.8892 46.1005C79.8531 44.83 81.3753 43.1083 83.1374 41.7809C84.3082 40.9022 85.638 40.1209 87.1317 39.9214C87.9581 39.8122 88.7537 39.8715 89.5682 40.1993C90.6369 40.6267 91.3137 41.5196 91.3992 42.2962C91.4182 42.5241 91.5939 42.5503 91.7364 42.3508C92.5818 41.0423 97.1247 34.3027 97.4976 33.595C97.6116 33.3742 97.7351 33.3433 97.9773 33.3433C98.9865 33.3433 100.257 33.3433 101.226 33.3433C101.414 33.3433 101.501 33.4502 101.416 33.595L101.428 33.6022ZM88.7252 42.3722C88.5139 42.2724 88.2835 42.2249 88.0365 42.2273C86.9679 42.2368 85.6047 43.1701 84.3485 44.6994C83.0804 46.2406 82.3965 47.8104 82.3727 49.3397C82.3632 49.8835 82.5722 50.5532 83.0566 50.8049C84.1467 51.3749 85.4647 50.5271 86.417 49.7482C87.0486 49.2352 87.5687 48.7033 88.0294 48.0217C88.5304 47.2832 88.8986 46.794 89.2999 45.9438C89.3569 45.8298 89.3284 45.7942 89.2809 45.7752C89.1408 45.7253 88.9983 45.6208 88.9793 45.5116C88.9555 45.4403 88.965 45.362 88.9983 45.2955C89.5184 44.2506 89.8889 42.9207 88.7276 42.3722H88.7252ZM63.3176 18C28.5108 18 0.317627 28.1355 0.317627 40.6742C0.317627 53.2129 28.5108 63.3484 63.3176 63.3484C98.1245 63.3484 126.318 53.2106 126.318 40.6742C126.318 28.1378 98.1292 18 63.3176 18ZM63.6358 61.3608C30.1161 61.3608 2.9441 51.9971 2.9441 40.4462C2.9441 28.8954 30.1161 19.5317 63.6358 19.5317C97.1556 19.5317 124.323 28.893 124.323 40.4462C124.323 51.9994 97.1508 61.3608 63.6358 61.3608ZM63.6358 21.3437C31.294 21.3437 5.079 29.8952 5.079 40.4462C5.079 50.9973 31.294 59.5512 63.6358 59.5512C95.9777 59.5512 122.188 50.9973 122.188 40.4462C122.188 29.8952 95.9753 21.3437 63.6358 21.3437ZM33.1036 53.5953C29.5913 53.619 26.497 51.4699 26.1431 47.751C25.946 45.6873 26.5326 43.8516 27.7129 42.3389C28.7578 40.9901 30.5269 39.8692 32.0254 39.5961C32.5122 39.5058 33.1677 39.5628 33.4384 39.881C33.8635 40.3702 33.74 40.9069 33.3173 41.123C32.175 41.7025 30.8001 42.6904 30.1185 44.0393C29.5675 45.1411 29.4559 46.4686 30.299 47.7344C31.7096 49.8432 35.6422 49.9001 39.2969 46.5375C40.2017 45.7158 41.0115 44.9227 41.8356 43.987C43.4456 42.1632 43.9823 41.5006 46.122 38.5607C46.1481 38.5274 46.1552 38.4823 46.1434 38.4609C46.1268 38.4229 46.0959 38.4134 46.0341 38.4087C44.6045 38.4467 43.3601 38.8694 42.149 39.7647C41.7999 40.0164 41.2988 39.9808 41.078 39.6507C40.8334 39.2755 41.0091 38.7887 41.4128 38.5132C43.3601 37.1714 45.4879 36.9292 47.6608 36.5659C47.6585 36.5659 47.8128 36.573 47.9363 36.4091C48.8292 35.274 49.5037 34.2529 50.4536 33.1058C51.4106 31.9422 52.6502 30.876 53.5954 30.0733C54.9157 28.95 55.7612 28.5724 56.6208 28.107C56.8464 27.9906 56.5899 27.8505 56.5234 27.8505C51.7193 26.9576 46.7299 25.8011 41.959 27.5489C38.6558 28.7695 37.2095 31.3628 37.9053 33.0964C38.4016 34.3241 40.0331 34.5259 41.5625 33.785C42.8947 33.1343 44.0275 32.1369 44.8396 30.8973C45.3075 30.1873 46.2882 30.7002 45.7587 31.9327C44.3623 35.1814 41.6954 37.758 38.4491 37.8672C35.6849 37.9575 33.9015 35.9437 33.9086 33.4573C33.9181 28.5582 39.4275 25.3309 45.2172 24.8488C46.0887 24.7776 46.9531 24.7419 47.8152 24.7396C53.8447 24.7206 59.6557 26.219 65.7138 26.9481C71.0166 27.5845 76.1033 27.5964 81.4323 26.3853C82.0616 26.2499 82.5057 26.6465 82.4653 27.2782C82.4131 28.1901 81.7007 29.0664 79.9434 30.0139C77.9486 31.0992 75.8587 31.4269 73.6763 31.4459C68.3996 31.4886 63.4862 29.4535 58.4019 28.3587C58.409 28.5796 58.466 28.8432 58.2808 28.9809C55.4643 31.0374 52.9186 33.1272 51.2111 36.06C51.1541 36.1289 51.185 36.193 51.2847 36.1859C52.7666 36.1076 54.0964 36.0696 55.4785 35.9603C55.7208 35.9413 55.7303 35.8819 55.7089 35.7062C55.5878 34.6946 55.8846 33.5404 56.7847 32.7496C57.7037 31.9327 58.8555 31.8401 59.6178 32.429C60.4869 33.0987 60.4085 34.3027 59.936 35.2051C59.4515 36.1218 58.6536 36.6134 57.8866 36.8508C57.8866 36.8508 57.7275 36.8841 57.7512 37.029C57.7821 37.2617 58.8246 37.834 58.9148 37.986C59.0003 38.1308 58.9576 38.3564 58.7985 38.5298C58.6868 38.6557 58.5135 38.772 58.2926 38.7673C58.1121 38.7625 58.0029 38.7032 57.7749 38.5797C57.3071 38.3279 56.7206 37.9147 56.3311 37.4303C56.1981 37.2641 56.1316 37.2617 55.7991 37.2807C54.303 37.3662 51.971 37.587 50.3894 37.7841C50.0071 37.8316 49.9501 37.9005 49.8717 38.0335C47.3521 42.1466 44.6639 46.585 41.7097 49.5534C38.5418 52.738 35.9082 53.5763 33.1131 53.5977L33.1036 53.5953ZM101.428 33.6022C100.939 34.4381 91.5179 48.6392 90.9219 50.1091C90.7319 50.5746 90.7105 50.9284 90.9029 51.1849C91.3944 51.8451 92.4916 51.4604 93.1803 50.9854C95.2226 49.5914 96.6331 47.9077 98.2005 46.4306C98.2907 46.3641 98.4451 46.338 98.5519 46.4259C98.7823 46.6396 99.1195 46.9151 99.3523 47.1573C99.4615 47.2737 99.4211 47.39 99.3641 47.4613C97.8324 49.3112 96.1392 51.0614 94.5196 52.2963C91.9976 54.2293 89.4851 54.7185 88.2408 53.4813C87.7753 53.0206 87.5235 52.3604 87.4903 51.8047C87.476 51.5031 87.3194 51.4865 87.1721 51.629C85.6855 53.0847 83.1041 54.6972 80.7531 53.5502C78.7892 52.5884 78.3356 50.2706 78.7037 48.3138C78.7108 48.2711 78.6681 47.9956 78.4282 48.1595C77.9319 48.5157 77.3905 48.803 76.8181 49.0144C76.0012 49.316 75.6165 49.43 74.859 49.4205C73.9043 49.4157 73.0447 49.0144 72.4391 48.0787C72.1019 47.5729 71.9618 46.8035 71.9285 46.2406C71.9261 46.1789 71.843 46.0673 71.7528 46.2098C70.1498 48.6344 68.6513 50.983 67.0626 53.4481C66.9819 53.562 66.9083 53.6357 66.7444 53.6428C65.7613 53.6428 64.6831 53.6428 63.6002 53.6451C63.4031 53.6451 63.3153 53.5003 63.4174 53.3151C63.9754 52.2464 67.027 47.846 69.0978 44.0986C69.6701 43.0703 69.5561 42.5408 69.1975 42.3104C68.7535 42.0278 67.8724 42.4553 67.1268 43.0181C65.094 44.5427 63.3889 46.9175 62.5221 47.979C62.0115 48.6035 61.5318 49.5249 60.1996 50.9569C58.105 53.2082 55.3266 54.5024 52.6502 53.6072C51.1897 53.1203 50.1306 51.9543 49.7269 50.5295C49.6461 50.2516 49.4894 50.1756 49.3398 50.3585C48.9052 50.8904 48.0218 51.6788 47.2832 52.1752C47.2025 52.2322 47.003 52.3485 46.8321 52.2654C46.6777 52.1965 46.1267 51.4295 46.0199 51.2087C45.9391 51.0472 46.0104 50.8691 46.1054 50.7859C47.1621 49.8669 47.7392 49.3468 48.1999 48.7745C48.5419 48.3494 48.8055 47.8674 49.1142 47.0979C49.7554 45.495 51.2206 42.498 54.1368 40.9521C55.2529 40.3607 56.381 39.9357 57.6301 39.7932C58.1715 39.7338 58.6132 39.8027 58.77 40.2183C58.8317 40.394 58.9813 40.7763 59.0739 41.0542C59.1309 41.2252 59.0905 41.3534 58.8863 41.4318C57.1646 42.0801 55.4382 43.0846 54.2437 44.6638C52.8924 46.4615 52.5243 48.6249 53.4315 49.8669C54.0917 50.7669 55.1603 50.926 56.1862 50.6031C57.7441 50.1163 59.0716 48.6771 59.7531 47.0837C60.4964 45.3406 60.6152 43.2793 60.069 41.4674C59.9787 41.1539 60.0595 40.9117 60.2637 40.7431C60.6793 40.4106 61.2492 40.1518 61.4131 40.0615C61.7669 39.8644 62.1896 40.0093 62.3915 40.299C62.959 41.1349 63.2678 42.3104 63.2986 43.5239C63.3343 43.7804 63.4435 43.7875 63.5694 43.6545C64.5858 42.5811 65.5333 41.4389 66.6162 40.5768C67.6064 39.7956 68.8746 39.1591 70.062 39.1852C71.5913 39.2185 72.3583 40.2491 72.3037 42.0824C72.2966 42.3175 72.47 42.3009 72.5816 42.1418C73.0399 41.4982 73.3415 41.1753 73.8711 40.7407C74.9278 39.8763 76.0107 39.4868 77.1435 39.5652C78.5351 39.6649 79.6488 40.9283 79.4209 42.3579C79.2736 43.2817 78.7702 44.0939 77.9105 44.5142C77.1839 44.8657 76.3337 44.8063 75.74 44.2791C75.2532 43.835 75.0964 43.2057 75.2247 42.5716C75.2508 42.441 75.0798 42.3175 74.935 42.4648C73.5742 43.8683 73.4745 45.6802 74.365 46.4971C75.3458 47.3972 76.8158 46.794 77.8892 46.1005C79.8531 44.83 81.3753 43.1083 83.1374 41.7809C84.3082 40.9022 85.638 40.1209 87.1317 39.9214C87.9581 39.8122 88.7537 39.8715 89.5682 40.1993C90.6369 40.6267 91.3137 41.5196 91.3992 42.2962C91.4182 42.5241 91.5939 42.5503 91.7364 42.3508C92.5818 41.0423 97.1247 34.3027 97.4976 33.595C97.6116 33.3742 97.7351 33.3433 97.9773 33.3433C98.9865 33.3433 100.257 33.3433 101.226 33.3433C101.414 33.3433 101.501 33.4502 101.416 33.595L101.428 33.6022ZM88.7252 42.3722C88.5139 42.2724 88.2835 42.2249 88.0365 42.2273C86.9679 42.2368 85.6047 43.1701 84.3485 44.6994C83.0804 46.2406 82.3965 47.8104 82.3727 49.3397C82.3632 49.8835 82.5722 50.5532 83.0566 50.8049C84.1467 51.3749 85.4647 50.5271 86.417 49.7482C87.0486 49.2352 87.5687 48.7033 88.0294 48.0217C88.5304 47.2832 88.8986 46.794 89.2999 45.9438C89.3569 45.8298 89.3284 45.7942 89.2809 45.7752C89.1408 45.7253 88.9983 45.6208 88.9793 45.5116C88.9555 45.4403 88.965 45.362 88.9983 45.2955C89.5184 44.2506 89.8889 42.9207 88.7276 42.3722H88.7252ZM89.2785 45.7728C89.1384 45.723 88.9959 45.6185 88.9769 45.5092C88.9532 45.438 88.9627 45.3596 88.9959 45.2931C89.516 44.2482 89.8865 42.9184 88.7252 42.3698C88.5139 42.27 88.2835 42.2226 88.0365 42.2249C86.9679 42.2344 85.6047 43.1677 84.3485 44.6971C83.0804 46.2383 82.3965 47.808 82.3727 49.3373C82.3632 49.8812 82.5722 50.5508 83.0566 50.8026C84.1467 51.3725 85.4647 50.5247 86.417 49.7458C87.0486 49.2328 87.5687 48.7009 88.0294 48.0193C88.5304 47.2808 88.8986 46.7916 89.2999 45.9414C89.3569 45.8274 89.3284 45.7918 89.2809 45.7728H89.2785ZM89.2785 45.7728C89.1384 45.723 88.9959 45.6185 88.9769 45.5092C88.9532 45.438 88.9627 45.3596 88.9959 45.2931C89.516 44.2482 89.8865 42.9184 88.7252 42.3698C88.5139 42.27 88.2835 42.2226 88.0365 42.2249C86.9679 42.2344 85.6047 43.1677 84.3485 44.6971C83.0804 46.2383 82.3965 47.808 82.3727 49.3373C82.3632 49.8812 82.5722 50.5508 83.0566 50.8026C84.1467 51.3725 85.4647 50.5247 86.417 49.7458C87.0486 49.2328 87.5687 48.7009 88.0294 48.0193C88.5304 47.2808 88.8986 46.7916 89.2999 45.9414C89.3569 45.8274 89.3284 45.7918 89.2809 45.7728H89.2785ZM63.6358 21.3437C31.294 21.3437 5.079 29.8952 5.079 40.4462C5.079 50.9973 31.294 59.5512 63.6358 59.5512C95.9777 59.5512 122.188 50.9973 122.188 40.4462C122.188 29.8952 95.9753 21.3437 63.6358 21.3437ZM33.1036 53.5953C29.5913 53.619 26.497 51.4699 26.1431 47.751C25.946 45.6873 26.5326 43.8516 27.7129 42.3389C28.7578 40.9901 30.5269 39.8692 32.0254 39.5961C32.5122 39.5058 33.1677 39.5628 33.4384 39.881C33.8635 40.3702 33.74 40.9069 33.3173 41.123C32.175 41.7025 30.8001 42.6904 30.1185 44.0393C29.5675 45.1411 29.4559 46.4686 30.299 47.7344C31.7096 49.8432 35.6422 49.9001 39.2969 46.5375C40.2017 45.7158 41.0115 44.9227 41.8356 43.987C43.4456 42.1632 43.9823 41.5006 46.122 38.5607C46.1481 38.5274 46.1552 38.4823 46.1434 38.4609C46.1268 38.4229 46.0959 38.4134 46.0341 38.4087C44.6045 38.4467 43.3601 38.8694 42.149 39.7647C41.7999 40.0164 41.2988 39.9808 41.078 39.6507C40.8334 39.2755 41.0091 38.7887 41.4128 38.5132C43.3601 37.1714 45.4879 36.9292 47.6608 36.5659C47.6585 36.5659 47.8128 36.573 47.9363 36.4091C48.8292 35.274 49.5037 34.2529 50.4536 33.1058C51.4106 31.9422 52.6502 30.876 53.5954 30.0733C54.9157 28.95 55.7612 28.5724 56.6208 28.107C56.8464 27.9906 56.5899 27.8505 56.5234 27.8505C51.7193 26.9576 46.7299 25.8011 41.959 27.5489C38.6558 28.7695 37.2095 31.3628 37.9053 33.0964C38.4016 34.3241 40.0331 34.5259 41.5625 33.785C42.8947 33.1343 44.0275 32.1369 44.8396 30.8973C45.3075 30.1873 46.2882 30.7002 45.7587 31.9327C44.3623 35.1814 41.6954 37.758 38.4491 37.8672C35.6849 37.9575 33.9015 35.9437 33.9086 33.4573C33.9181 28.5582 39.4275 25.3309 45.2172 24.8488C46.0887 24.7776 46.9531 24.7419 47.8152 24.7396C53.8447 24.7206 59.6557 26.219 65.7138 26.9481C71.0166 27.5845 76.1033 27.5964 81.4323 26.3853C82.0616 26.2499 82.5057 26.6465 82.4653 27.2782C82.4131 28.1901 81.7007 29.0664 79.9434 30.0139C77.9486 31.0992 75.8587 31.4269 73.6763 31.4459C68.3996 31.4886 63.4862 29.4535 58.4019 28.3587C58.409 28.5796 58.466 28.8432 58.2808 28.9809C55.4643 31.0374 52.9186 33.1272 51.2111 36.06C51.1541 36.1289 51.185 36.193 51.2847 36.1859C52.7666 36.1076 54.0964 36.0696 55.4785 35.9603C55.7208 35.9413 55.7303 35.8819 55.7089 35.7062C55.5878 34.6946 55.8846 33.5404 56.7847 32.7496C57.7037 31.9327 58.8555 31.8401 59.6178 32.429C60.4869 33.0987 60.4085 34.3027 59.936 35.2051C59.4515 36.1218 58.6536 36.6134 57.8866 36.8508C57.8866 36.8508 57.7275 36.8841 57.7512 37.029C57.7821 37.2617 58.8246 37.834 58.9148 37.986C59.0003 38.1308 58.9576 38.3564 58.7985 38.5298C58.6868 38.6557 58.5135 38.772 58.2926 38.7673C58.1121 38.7625 58.0029 38.7032 57.7749 38.5797C57.3071 38.3279 56.7206 37.9147 56.3311 37.4303C56.1981 37.2641 56.1316 37.2617 55.7991 37.2807C54.303 37.3662 51.971 37.587 50.3894 37.7841C50.0071 37.8316 49.9501 37.9005 49.8717 38.0335C47.3521 42.1466 44.6639 46.585 41.7097 49.5534C38.5418 52.738 35.9082 53.5763 33.1131 53.5977L33.1036 53.5953ZM101.428 33.6022C100.939 34.4381 91.5179 48.6392 90.9219 50.1091C90.7319 50.5746 90.7105 50.9284 90.9029 51.1849C91.3944 51.8451 92.4916 51.4604 93.1803 50.9854C95.2226 49.5914 96.6331 47.9077 98.2005 46.4306C98.2907 46.3641 98.4451 46.338 98.5519 46.4259C98.7823 46.6396 99.1195 46.9151 99.3523 47.1573C99.4615 47.2737 99.4211 47.39 99.3641 47.4613C97.8324 49.3112 96.1392 51.0614 94.5196 52.2963C91.9976 54.2293 89.4851 54.7185 88.2408 53.4813C87.7753 53.0206 87.5235 52.3604 87.4903 51.8047C87.476 51.5031 87.3194 51.4865 87.1721 51.629C85.6855 53.0847 83.1041 54.6972 80.7531 53.5502C78.7892 52.5884 78.3356 50.2706 78.7037 48.3138C78.7108 48.2711 78.6681 47.9956 78.4282 48.1595C77.9319 48.5157 77.3905 48.803 76.8181 49.0144C76.0012 49.316 75.6165 49.43 74.859 49.4205C73.9043 49.4157 73.0447 49.0144 72.4391 48.0787C72.1019 47.5729 71.9618 46.8035 71.9285 46.2406C71.9261 46.1789 71.843 46.0673 71.7528 46.2098C70.1498 48.6344 68.6513 50.983 67.0626 53.4481C66.9819 53.562 66.9083 53.6357 66.7444 53.6428C65.7613 53.6428 64.6831 53.6428 63.6002 53.6451C63.4031 53.6451 63.3153 53.5003 63.4174 53.3151C63.9754 52.2464 67.027 47.846 69.0978 44.0986C69.6701 43.0703 69.5561 42.5408 69.1975 42.3104C68.7535 42.0278 67.8724 42.4553 67.1268 43.0181C65.094 44.5427 63.3889 46.9175 62.5221 47.979C62.0115 48.6035 61.5318 49.5249 60.1996 50.9569C58.105 53.2082 55.3266 54.5024 52.6502 53.6072C51.1897 53.1203 50.1306 51.9543 49.7269 50.5295C49.6461 50.2516 49.4894 50.1756 49.3398 50.3585C48.9052 50.8904 48.0218 51.6788 47.2832 52.1752C47.2025 52.2322 47.003 52.3485 46.8321 52.2654C46.6777 52.1965 46.1267 51.4295 46.0199 51.2087C45.9391 51.0472 46.0104 50.8691 46.1054 50.7859C47.1621 49.8669 47.7392 49.3468 48.1999 48.7745C48.5419 48.3494 48.8055 47.8674 49.1142 47.0979C49.7554 45.495 51.2206 42.498 54.1368 40.9521C55.2529 40.3607 56.381 39.9357 57.6301 39.7932C58.1715 39.7338 58.6132 39.8027 58.77 40.2183C58.8317 40.394 58.9813 40.7763 59.0739 41.0542C59.1309 41.2252 59.0905 41.3534 58.8863 41.4318C57.1646 42.0801 55.4382 43.0846 54.2437 44.6638C52.8924 46.4615 52.5243 48.6249 53.4315 49.8669C54.0917 50.7669 55.1603 50.926 56.1862 50.6031C57.7441 50.1163 59.0716 48.6771 59.7531 47.0837C60.4964 45.3406 60.6152 43.2793 60.069 41.4674C59.9787 41.1539 60.0595 40.9117 60.2637 40.7431C60.6793 40.4106 61.2492 40.1518 61.4131 40.0615C61.7669 39.8644 62.1896 40.0093 62.3915 40.299C62.959 41.1349 63.2678 42.3104 63.2986 43.5239C63.3343 43.7804 63.4435 43.7875 63.5694 43.6545C64.5858 42.5811 65.5333 41.4389 66.6162 40.5768C67.6064 39.7956 68.8746 39.1591 70.062 39.1852C71.5913 39.2185 72.3583 40.2491 72.3037 42.0824C72.2966 42.3175 72.47 42.3009 72.5816 42.1418C73.0399 41.4982 73.3415 41.1753 73.8711 40.7407C74.9278 39.8763 76.0107 39.4868 77.1435 39.5652C78.5351 39.6649 79.6488 40.9283 79.4209 42.3579C79.2736 43.2817 78.7702 44.0939 77.9105 44.5142C77.1839 44.8657 76.3337 44.8063 75.74 44.2791C75.2532 43.835 75.0964 43.2057 75.2247 42.5716C75.2508 42.441 75.0798 42.3175 74.935 42.4648C73.5742 43.8683 73.4745 45.6802 74.365 46.4971C75.3458 47.3972 76.8158 46.794 77.8892 46.1005C79.8531 44.83 81.3753 43.1083 83.1374 41.7809C84.3082 40.9022 85.638 40.1209 87.1317 39.9214C87.9581 39.8122 88.7537 39.8715 89.5682 40.1993C90.6369 40.6267 91.3137 41.5196 91.3992 42.2962C91.4182 42.5241 91.5939 42.5503 91.7364 42.3508C92.5818 41.0423 97.1247 34.3027 97.4976 33.595C97.6116 33.3742 97.7351 33.3433 97.9773 33.3433C98.9865 33.3433 100.257 33.3433 101.226 33.3433C101.414 33.3433 101.501 33.4502 101.416 33.595L101.428 33.6022ZM88.7252 42.3722C88.5139 42.2724 88.2835 42.2249 88.0365 42.2273C86.9679 42.2368 85.6047 43.1701 84.3485 44.6994C83.0804 46.2406 82.3965 47.8104 82.3727 49.3397C82.3632 49.8835 82.5722 50.5532 83.0566 50.8049C84.1467 51.3749 85.4647 50.5271 86.417 49.7482C87.0486 49.2352 87.5687 48.7033 88.0294 48.0217C88.5304 47.2832 88.8986 46.794 89.2999 45.9438C89.3569 45.8298 89.3284 45.7942 89.2809 45.7752C89.1408 45.7253 88.9983 45.6208 88.9793 45.5116C88.9555 45.4403 88.965 45.362 88.9983 45.2955C89.5184 44.2506 89.8889 42.9207 88.7276 42.3722H88.7252ZM89.2785 45.7728C89.1384 45.723 88.9959 45.6185 88.9769 45.5092C88.9532 45.438 88.9627 45.3596 88.9959 45.2931C89.516 44.2482 89.8865 42.9184 88.7252 42.3698C88.5139 42.27 88.2835 42.2226 88.0365 42.2249C86.9679 42.2344 85.6047 43.1677 84.3485 44.6971C83.0804 46.2383 82.3965 47.808 82.3727 49.3373C82.3632 49.8812 82.5722 50.5508 83.0566 50.8026C84.1467 51.3725 85.4647 50.5247 86.417 49.7458C87.0486 49.2328 87.5687 48.7009 88.0294 48.0193C88.5304 47.2808 88.8986 46.7916 89.2999 45.9414C89.3569 45.8274 89.3284 45.7918 89.2809 45.7728H89.2785ZM89.2785 45.7728C89.1384 45.723 88.9959 45.6185 88.9769 45.5092C88.9532 45.438 88.9627 45.3596 88.9959 45.2931C89.516 44.2482 89.8865 42.9184 88.7252 42.3698C88.5139 42.27 88.2835 42.2226 88.0365 42.2249C86.9679 42.2344 85.6047 43.1677 84.3485 44.6971C83.0804 46.2383 82.3965 47.808 82.3727 49.3373C82.3632 49.8812 82.5722 50.5508 83.0566 50.8026C84.1467 51.3725 85.4647 50.5247 86.417 49.7458C87.0486 49.2328 87.5687 48.7009 88.0294 48.0193C88.5304 47.2808 88.8986 46.7916 89.2999 45.9414C89.3569 45.8274 89.3284 45.7918 89.2809 45.7728H89.2785ZM63.6358 21.3437C31.294 21.3437 5.079 29.8952 5.079 40.4462C5.079 50.9973 31.294 59.5512 63.6358 59.5512C95.9777 59.5512 122.188 50.9973 122.188 40.4462C122.188 29.8952 95.9753 21.3437 63.6358 21.3437ZM33.1036 53.5953C29.5913 53.619 26.497 51.4699 26.1431 47.751C25.946 45.6873 26.5326 43.8516 27.7129 42.3389C28.7578 40.9901 30.5269 39.8692 32.0254 39.5961C32.5122 39.5058 33.1677 39.5628 33.4384 39.881C33.8635 40.3702 33.74 40.9069 33.3173 41.123C32.175 41.7025 30.8001 42.6904 30.1185 44.0393C29.5675 45.1411 29.4559 46.4686 30.299 47.7344C31.7096 49.8432 35.6422 49.9001 39.2969 46.5375C40.2017 45.7158 41.0115 44.9227 41.8356 43.987C43.4456 42.1632 43.9823 41.5006 46.122 38.5607C46.1481 38.5274 46.1552 38.4823 46.1434 38.4609C46.1268 38.4229 46.0959 38.4134 46.0341 38.4087C44.6045 38.4467 43.3601 38.8694 42.149 39.7647C41.7999 40.0164 41.2988 39.9808 41.078 39.6507C40.8334 39.2755 41.0091 38.7887 41.4128 38.5132C43.3601 37.1714 45.4879 36.9292 47.6608 36.5659C47.6585 36.5659 47.8128 36.573 47.9363 36.4091C48.8292 35.274 49.5037 34.2529 50.4536 33.1058C51.4106 31.9422 52.6502 30.876 53.5954 30.0733C54.9157 28.95 55.7612 28.5724 56.6208 28.107C56.8464 27.9906 56.5899 27.8505 56.5234 27.8505C51.7193 26.9576 46.7299 25.8011 41.959 27.5489C38.6558 28.7695 37.2095 31.3628 37.9053 33.0964C38.4016 34.3241 40.0331 34.5259 41.5625 33.785C42.8947 33.1343 44.0275 32.1369 44.8396 30.8973C45.3075 30.1873 46.2882 30.7002 45.7587 31.9327C44.3623 35.1814 41.6954 37.758 38.4491 37.8672C35.6849 37.9575 33.9015 35.9437 33.9086 33.4573C33.9181 28.5582 39.4275 25.3309 45.2172 24.8488C46.0887 24.7776 46.9531 24.7419 47.8152 24.7396C53.8447 24.7206 59.6557 26.219 65.7138 26.9481C71.0166 27.5845 76.1033 27.5964 81.4323 26.3853C82.0616 26.2499 82.5057 26.6465 82.4653 27.2782C82.4131 28.1901 81.7007 29.0664 79.9434 30.0139C77.9486 31.0992 75.8587 31.4269 73.6763 31.4459C68.3996 31.4886 63.4862 29.4535 58.4019 28.3587C58.409 28.5796 58.466 28.8432 58.2808 28.9809C55.4643 31.0374 52.9186 33.1272 51.2111 36.06C51.1541 36.1289 51.185 36.193 51.2847 36.1859C52.7666 36.1076 54.0964 36.0696 55.4785 35.9603C55.7208 35.9413 55.7303 35.8819 55.7089 35.7062C55.5878 34.6946 55.8846 33.5404 56.7847 32.7496C57.7037 31.9327 58.8555 31.8401 59.6178 32.429C60.4869 33.0987 60.4085 34.3027 59.936 35.2051C59.4515 36.1218 58.6536 36.6134 57.8866 36.8508C57.8866 36.8508 57.7275 36.8841 57.7512 37.029C57.7821 37.2617 58.8246 37.834 58.9148 37.986C59.0003 38.1308 58.9576 38.3564 58.7985 38.5298C58.6868 38.6557 58.5135 38.772 58.2926 38.7673C58.1121 38.7625 58.0029 38.7032 57.7749 38.5797C57.3071 38.3279 56.7206 37.9147 56.3311 37.4303C56.1981 37.2641 56.1316 37.2617 55.7991 37.2807C54.303 37.3662 51.971 37.587 50.3894 37.7841C50.0071 37.8316 49.9501 37.9005 49.8717 38.0335C47.3521 42.1466 44.6639 46.585 41.7097 49.5534C38.5418 52.738 35.9082 53.5763 33.1131 53.5977L33.1036 53.5953ZM101.428 33.6022C100.939 34.4381 91.5179 48.6392 90.9219 50.1091C90.7319 50.5746 90.7105 50.9284 90.9029 51.1849C91.3944 51.8451 92.4916 51.4604 93.1803 50.9854C95.2226 49.5914 96.6331 47.9077 98.2005 46.4306C98.2907 46.3641 98.4451 46.338 98.5519 46.4259C98.7823 46.6396 99.1195 46.9151 99.3523 47.1573C99.4615 47.2737 99.4211 47.39 99.3641 47.4613C97.8324 49.3112 96.1392 51.0614 94.5196 52.2963C91.9976 54.2293 89.4851 54.7185 88.2408 53.4813C87.7753 53.0206 87.5235 52.3604 87.4903 51.8047C87.476 51.5031 87.3194 51.4865 87.1721 51.629C85.6855 53.0847 83.1041 54.6972 80.7531 53.5502C78.7892 52.5884 78.3356 50.2706 78.7037 48.3138C78.7108 48.2711 78.6681 47.9956 78.4282 48.1595C77.9319 48.5157 77.3905 48.803 76.8181 49.0144C76.0012 49.316 75.6165 49.43 74.859 49.4205C73.9043 49.4157 73.0447 49.0144 72.4391 48.0787C72.1019 47.5729 71.9618 46.8035 71.9285 46.2406C71.9261 46.1789 71.843 46.0673 71.7528 46.2098C70.1498 48.6344 68.6513 50.983 67.0626 53.4481C66.9819 53.562 66.9083 53.6357 66.7444 53.6428C65.7613 53.6428 64.6831 53.6428 63.6002 53.6451C63.4031 53.6451 63.3153 53.5003 63.4174 53.3151C63.9754 52.2464 67.027 47.846 69.0978 44.0986C69.6701 43.0703 69.5561 42.5408 69.1975 42.3104C68.7535 42.0278 67.8724 42.4553 67.1268 43.0181C65.094 44.5427 63.3889 46.9175 62.5221 47.979C62.0115 48.6035 61.5318 49.5249 60.1996 50.9569C58.105 53.2082 55.3266 54.5024 52.6502 53.6072C51.1897 53.1203 50.1306 51.9543 49.7269 50.5295C49.6461 50.2516 49.4894 50.1756 49.3398 50.3585C48.9052 50.8904 48.0218 51.6788 47.2832 52.1752C47.2025 52.2322 47.003 52.3485 46.8321 52.2654C46.6777 52.1965 46.1267 51.4295 46.0199 51.2087C45.9391 51.0472 46.0104 50.8691 46.1054 50.7859C47.1621 49.8669 47.7392 49.3468 48.1999 48.7745C48.5419 48.3494 48.8055 47.8674 49.1142 47.0979C49.7554 45.495 51.2206 42.498 54.1368 40.9521C55.2529 40.3607 56.381 39.9357 57.6301 39.7932C58.1715 39.7338 58.6132 39.8027 58.77 40.2183C58.8317 40.394 58.9813 40.7763 59.0739 41.0542C59.1309 41.2252 59.0905 41.3534 58.8863 41.4318C57.1646 42.0801 55.4382 43.0846 54.2437 44.6638C52.8924 46.4615 52.5243 48.6249 53.4315 49.8669C54.0917 50.7669 55.1603 50.926 56.1862 50.6031C57.7441 50.1163 59.0716 48.6771 59.7531 47.0837C60.4964 45.3406 60.6152 43.2793 60.069 41.4674C59.9787 41.1539 60.0595 40.9117 60.2637 40.7431C60.6793 40.4106 61.2492 40.1518 61.4131 40.0615C61.7669 39.8644 62.1896 40.0093 62.3915 40.299C62.959 41.1349 63.2678 42.3104 63.2986 43.5239C63.3343 43.7804 63.4435 43.7875 63.5694 43.6545C64.5858 42.5811 65.5333 41.4389 66.6162 40.5768C67.6064 39.7956 68.8746 39.1591 70.062 39.1852C71.5913 39.2185 72.3583 40.2491 72.3037 42.0824C72.2966 42.3175 72.47 42.3009 72.5816 42.1418C73.0399 41.4982 73.3415 41.1753 73.8711 40.7407C74.9278 39.8763 76.0107 39.4868 77.1435 39.5652C78.5351 39.6649 79.6488 40.9283 79.4209 42.3579C79.2736 43.2817 78.7702 44.0939 77.9105 44.5142C77.1839 44.8657 76.3337 44.8063 75.74 44.2791C75.2532 43.835 75.0964 43.2057 75.2247 42.5716C75.2508 42.441 75.0798 42.3175 74.935 42.4648C73.5742 43.8683 73.4745 45.6802 74.365 46.4971C75.3458 47.3972 76.8158 46.794 77.8892 46.1005C79.8531 44.83 81.3753 43.1083 83.1374 41.7809C84.3082 40.9022 85.638 40.1209 87.1317 39.9214C87.9581 39.8122 88.7537 39.8715 89.5682 40.1993C90.6369 40.6267 91.3137 41.5196 91.3992 42.2962C91.4182 42.5241 91.5939 42.5503 91.7364 42.3508C92.5818 41.0423 97.1247 34.3027 97.4976 33.595C97.6116 33.3742 97.7351 33.3433 97.9773 33.3433C98.9865 33.3433 100.257 33.3433 101.226 33.3433C101.414 33.3433 101.501 33.4502 101.416 33.595L101.428 33.6022ZM88.7252 42.3722C88.5139 42.2724 88.2835 42.2249 88.0365 42.2273C86.9679 42.2368 85.6047 43.1701 84.3485 44.6994C83.0804 46.2406 82.3965 47.8104 82.3727 49.3397C82.3632 49.8835 82.5722 50.5532 83.0566 50.8049C84.1467 51.3749 85.4647 50.5271 86.417 49.7482C87.0486 49.2352 87.5687 48.7033 88.0294 48.0217C88.5304 47.2832 88.8986 46.794 89.2999 45.9438C89.3569 45.8298 89.3284 45.7942 89.2809 45.7752C89.1408 45.7253 88.9983 45.6208 88.9793 45.5116C88.9555 45.4403 88.965 45.362 88.9983 45.2955C89.5184 44.2506 89.8889 42.9207 88.7276 42.3722H88.7252Z" fill="#A3A3A3" style="fill:#A3A3A3;fill:color(display-p3 0.6392 0.6392 0.6392);fill-opacity:1;"></path></svg> 