<?xml version="1.0" encoding="UTF-8"?> <svg xmlns="http://www.w3.org/2000/svg" width="107" height="82" viewBox="0 0 107 82" fill="none"><path fill-rule="evenodd" clip-rule="evenodd" d="M0.317383 24.239V20.1105H4.3886V54.1582H0.317383V24.239Z" fill="#A3A3A3" style="fill:#A3A3A3;fill:color(display-p3 0.6392 0.6392 0.6392);fill-opacity:1;"></path><path fill-rule="evenodd" clip-rule="evenodd" d="M41.7093 41.7578C41.8134 47.9442 45.6425 52.8925 50.2616 52.8118C54.8786 52.729 58.5399 47.6448 58.4337 41.4583C58.3297 35.2676 54.5006 30.3193 49.8814 30.4043C45.2644 30.4871 41.6031 35.5713 41.7114 41.7578H41.7093ZM75.4109 34.278C75.5149 34.5158 75.2643 33.9254 75.2643 33.9254L75.4109 34.278ZM78.1845 59.8966C78.3714 59.5759 78.6305 59.0875 78.9405 58.4779L78.1845 59.8966ZM78.4244 32.1415C78.4733 32.2795 78.5285 32.4218 78.5944 32.5726L79.9663 35.9472L78.4244 32.1393V32.1415ZM61.3666 49.1377C63.8832 51.4356 66.1471 52.6228 69.0439 52.6228C72.0108 52.644 74.6442 51.1872 74.6442 48.3774C74.6442 46.0328 72.5778 44.663 68.891 43.0957C65.7627 41.7344 63.4394 40.7787 62.2225 38.81C62.3712 39.6659 62.4497 40.5493 62.4497 41.4562C62.4497 49.0549 56.9705 55.218 50.2127 55.218C43.455 55.218 37.9757 49.057 37.9757 41.4562C37.9757 36.8732 39.9657 32.8147 43.0281 30.3151H34.7477V54.1604H31.0672V50.2421C31.0672 50.172 31.0694 50.1019 31.0694 50.0318V30.3172H27.8264V27.8367H31.1182C31.543 22.831 34.6245 20.0001 38.8932 20.0001C41.6604 20.0001 43.1789 20.291 44.056 20.6988V24.0925C44.0433 24.3452 44.0433 24.5003 44.0433 24.5003C44.005 24.4939 43.9137 24.4939 43.9137 24.4939C42.5821 23.2579 41.2675 22.3383 38.2009 22.3425C35.7586 22.3425 34.1382 24.341 34.7052 27.8367H48.4734C49.0426 27.7453 49.6244 27.6986 50.2127 27.6986C55.1143 27.6986 59.3469 30.9416 61.3008 35.6244C61.2817 35.3632 61.2732 35.0935 61.2732 34.811C61.2732 29.9243 65.973 27.8473 70.8576 27.8579C71.0445 27.8579 71.2271 27.8579 71.4077 27.8643C73.1258 27.8367 75.5744 28.3994 77.0695 28.7966L79.9684 35.96L84.1118 46.1242L84.6003 47.7573L85.1419 46.1242L90.3811 33.078C91.3474 29.4868 95.1722 27.9301 99.3964 27.9407C101.497 27.9301 103.049 28.1849 104.907 28.8433V32.7892C102.618 31.1136 100.976 30.1409 98.377 30.1409C96.0919 30.1409 93.348 31.1582 93.348 34.5392C93.3055 37.0813 94.8176 37.5464 99.269 39.7657C102.924 41.3627 106.296 43.1254 106.318 47.2094C106.318 54.016 99.6512 55.1968 96.4062 55.2053C93.5115 55.2053 90.8547 54.4853 89.3787 53.2493V48.7555L89.6166 48.953C92.25 51.4293 94.5818 52.7099 97.5891 52.7099C100.556 52.7311 103.189 51.2721 103.189 48.4645C103.189 46.1199 101.123 44.7501 97.4361 43.1828C93.9107 41.6473 91.5959 40.6301 90.6508 38.0858C89.213 41.6155 82.5233 58.0022 80.9475 61.5043H77.3414L78.9724 58.4397C79.8771 56.6494 81.1917 53.8397 82.3619 51.151L75.4172 34.2886C75.3705 34.1866 75.2558 33.9275 75.0243 33.3945C74.4913 32.1733 73.9965 31.0456 72.4971 30.4765C71.6943 30.2046 70.8385 30.0623 69.8446 30.0623C67.5594 30.0623 64.6372 31.0796 64.6372 34.4606C64.5947 37.0027 66.283 37.4678 70.7323 39.6871C74.3872 41.2842 77.7597 43.049 77.7809 47.1308C77.7809 53.9374 71.1145 55.1139 67.8674 55.1267C65.2913 55.1267 62.9063 54.5575 61.373 53.5615V49.1462" fill="#A3A3A3" style="fill:#A3A3A3;fill:color(display-p3 0.6392 0.6392 0.6392);fill-opacity:1;"></path><path fill-rule="evenodd" clip-rule="evenodd" d="M11.9829 28.0873L12.0296 31.0669V31.2665H12.0678C12.1167 31.1433 12.1783 31.0371 12.2399 30.9585C13.735 29.3445 15.6208 27.7453 20.0977 27.7453C24.5745 27.7453 27.1612 31.4088 27.2717 33.7173L27.278 50.034V54.1625H23.604V35.4035C23.604 32.5259 21.0937 30.4467 18.0228 30.4467C15.4701 30.4467 12.1931 32.7574 12.0827 35.0977V54.1604H8.40649V28.0851H11.9829" fill="#A3A3A3" style="fill:#A3A3A3;fill:color(display-p3 0.6392 0.6392 0.6392);fill-opacity:1;"></path></svg> 