<?xml version="1.0" encoding="UTF-8"?> <svg xmlns="http://www.w3.org/2000/svg" width="77" height="82" viewBox="0 0 77 82" fill="none"><g clip-path="url(#clip0_365_854)"><path d="M30.3172 44.7568H30.3163L26.3602 45.8171L26.736 39.4578V39.4561L26.8104 39.4358L30.3172 44.7568Z" fill="#A3A3A3" style="fill:#A3A3A3;fill:color(display-p3 0.6392 0.6392 0.6392);fill-opacity:1;"></path><path d="M71.4274 43.2801L76.1662 40.4478L74.4002 39.4654H74.3993L65.8719 41.7502L61.9599 27.1588L64.5637 26.4615L67.8428 38.7004L71.3402 37.7636H71.3428L75.5527 34.1909L70.3552 32.3292L73.928 28.1192L68.4944 27.1351L71.3216 22.392L65.8009 22.3218L67.8022 17.1767L62.3457 18.023L63.4729 12.6131L58.2263 14.3394L58.4523 8.82285L53.562 11.3869L52.885 5.90762L48.4846 9.23835L46.9047 3.94608L43.112 7.95886L40.6833 3L37.609 7.58567L34.3933 3.1007L32.1136 8.12641L28.21 4.2211L26.779 9.55229L22.2881 6.34258L21.7584 11.8379L16.797 9.41605L17.1863 14.9241L11.8923 13.3544L13.1828 18.7228L7.70352 18.0458L9.85631 23.1308L4.33894 23.3584L7.29564 28.0211L1.89082 29.1482L5.57527 33.2617L0.429397 35.2698L4.74513 38.7156L0.00628662 41.5479L4.82975 44.2321L0.62149 47.8049L5.81898 49.6666L2.24708 53.8782L7.67898 54.8624L4.38971 42.5846L8.33903 41.5268L14.2727 51.1839L14.5825 39.8538L18.5318 38.7952L22.4422 53.3874L19.8383 54.0847L16.8283 42.852L16.5 54.9792L14.2414 55.5842L7.89476 45.2459V45.2485L9.56267 51.4741L10.9031 56.4787V56.4812L8.29926 57.1768L7.67898 54.8632L4.8526 59.6012L10.3742 59.6706L8.37203 64.8207L13.8285 63.9745L12.6996 69.3827L17.9462 67.6513L17.7202 73.1678L22.6097 70.6131L23.2867 76.0924L27.687 72.7617L29.2602 78.0539L33.0529 74.0411L35.4816 79L38.5559 74.4135L41.7715 78.8985L44.0513 73.8694L47.9549 77.7747L49.3859 72.4435L53.8776 75.6549L54.4065 70.1587L59.3679 72.5814L58.9879 67.0717L64.2819 68.6414L62.9914 63.2721L68.4707 63.9491L66.3179 58.8642L71.8353 58.6365L68.8786 53.9738L74.2808 52.8424L70.5972 48.7298L75.7431 46.726L71.4274 43.2801ZM36.5749 49.6014L33.9702 50.2987L31.7396 46.9189L26.2095 48.4015H26.2087L25.9701 52.4422V52.4456L23.362 53.1412L24.5078 37.195L27.6109 36.3623H27.6126L36.5825 49.5997L36.5749 49.6014ZM45.946 33.9895L49.2208 46.2115L46.617 46.9096L43.3421 34.6868L38.0118 36.1152H38.0109L41.2858 48.338L38.6828 49.0345L35.408 36.8125L31.2319 37.9329L30.5972 35.5635L49.4908 30.5022L50.1255 32.8691V32.8716L45.946 33.9895ZM50.7982 30.1493L60.1566 27.642L60.7912 30.0114L54.0375 31.8215H54.0367L54.9675 35.2969H54.9684L61.172 33.6332V33.6349L61.8025 35.9866L58.0901 36.9826L57.3691 37.1763L55.603 37.6502L56.6769 41.6723L63.5575 39.8301L64.1922 42.1995L54.7086 44.7416L50.7982 30.1493Z" fill="#A3A3A3" style="fill:#A3A3A3;fill:color(display-p3 0.6392 0.6392 0.6392);fill-opacity:1;"></path><path d="M38.6829 49.0345L41.2858 48.338L38.6829 49.0353V49.0345Z" fill="#A3A3A3" style="fill:#A3A3A3;fill:color(display-p3 0.6392 0.6392 0.6392);fill-opacity:1;"></path><path d="M38.0118 36.1152L41.2867 48.338H41.2859L38.011 36.1152H38.0118Z" fill="#A3A3A3" style="fill:#A3A3A3;fill:color(display-p3 0.6392 0.6392 0.6392);fill-opacity:1;"></path><path d="M50.1264 32.8691H50.1255L49.4908 30.5022L30.5972 35.5635L31.2319 37.932L31.2277 37.9329L30.593 35.5635L49.4908 30.4997L50.1264 32.8691Z" fill="#A3A3A3" style="fill:#A3A3A3;fill:color(display-p3 0.6392 0.6392 0.6392);fill-opacity:1;"></path><path d="M7.67902 54.8624H7.67995L7.67902 54.8633V54.8624Z" fill="#A3A3A3" style="fill:#A3A3A3;fill:color(display-p3 0.6392 0.6392 0.6392);fill-opacity:1;"></path><path d="M9.56268 51.4741L10.9039 56.4786H10.9031L9.56268 51.4741Z" fill="#A3A3A3" style="fill:#A3A3A3;fill:color(display-p3 0.6392 0.6392 0.6392);fill-opacity:1;"></path><path d="M7.89484 45.2459L14.2415 55.5842L7.89568 45.2484L7.89484 45.2459Z" fill="#A3A3A3" style="fill:#A3A3A3;fill:color(display-p3 0.6392 0.6392 0.6392);fill-opacity:1;"></path><path d="M22.4422 53.3874L18.5318 38.7952H18.5326L22.4422 53.3874Z" fill="#A3A3A3" style="fill:#A3A3A3;fill:color(display-p3 0.6392 0.6392 0.6392);fill-opacity:1;"></path><path d="M54.9676 35.2969L54.0367 31.8214H54.0376L54.9684 35.2969H54.9676Z" fill="#A3A3A3" style="fill:#A3A3A3;fill:color(display-p3 0.6392 0.6392 0.6392);fill-opacity:1;"></path><path d="M61.8026 35.9883L58.0902 36.9826L61.8026 35.9866V35.9883Z" fill="#A3A3A3" style="fill:#A3A3A3;fill:color(display-p3 0.6392 0.6392 0.6392);fill-opacity:1;"></path><path d="M64.1956 42.1995L54.7086 44.7415L64.1922 42.1995L63.5576 39.8309L63.5609 39.8301L64.1956 42.1995Z" fill="#A3A3A3" style="fill:#A3A3A3;fill:color(display-p3 0.6392 0.6392 0.6392);fill-opacity:1;"></path><path d="M24.5061 37.1949L23.362 53.1411L24.5078 37.1949H24.5061ZM26.2087 48.4015L25.9701 52.4422H25.9709L26.2095 48.4015H26.2087ZM26.8104 39.4357L26.7359 39.4561V39.4577L26.8104 39.4374L30.3162 44.7568H30.3171L26.8104 39.4357ZM36.5749 49.6014L33.9702 50.2987L31.7396 46.9189L33.9685 50.3038L36.5774 49.6048L36.5749 49.6014Z" fill="#A3A3A3" style="fill:#A3A3A3;fill:color(display-p3 0.6392 0.6392 0.6392);fill-opacity:1;"></path><path d="M61.9599 27.1588L65.872 41.7502L65.8703 41.751L61.9599 27.1588Z" fill="#A3A3A3" style="fill:#A3A3A3;fill:color(display-p3 0.6392 0.6392 0.6392);fill-opacity:1;"></path><path d="M71.3403 37.7628V37.7636L67.8429 38.7004L71.3403 37.7628Z" fill="#A3A3A3" style="fill:#A3A3A3;fill:color(display-p3 0.6392 0.6392 0.6392);fill-opacity:1;"></path></g><defs><clipPath id="clip0_365_854"><rect width="76.1599" height="82" fill="white" style="fill:white;fill-opacity:1;" transform="translate(0.00628662)"></rect></clipPath></defs></svg> 