<?xml version="1.0" encoding="UTF-8"?> <svg xmlns="http://www.w3.org/2000/svg" width="171" height="82" viewBox="0 0 171 82" fill="none"><path d="M12.0836 46.2168C12.3175 46.803 12.2432 47.5543 12.1303 48.0085C11.9322 48.8176 11.3845 49.6405 9.76897 49.6405C8.25526 49.6405 7.33328 48.7653 7.33328 47.4443V45.0939H0.829834V46.9599C0.829834 52.3652 5.07923 54 9.63962 54C14.2 54 17.6292 52.5083 18.2045 48.4626C18.5017 46.3682 18.2842 44.9976 18.1824 44.4912C17.1586 39.4161 7.96351 37.9024 7.2727 35.0621C7.17638 34.6438 7.16813 34.209 7.2507 33.7879C7.42133 33.009 7.94977 32.1613 9.46348 32.1613C10.8864 32.1613 11.712 33.0365 11.712 34.3576V35.8603H17.7614V34.1539C17.7614 28.8724 13.0221 28.0468 9.59558 28.0468C5.28288 28.0468 1.76007 29.4752 1.11606 33.4301C0.94542 34.5117 0.917904 35.4777 1.17386 36.697C2.22795 41.6482 10.8368 43.0821 12.089 46.2168" fill="#A3A3A3" style="fill:#A3A3A3;fill:color(display-p3 0.6392 0.6392 0.6392);fill-opacity:1;"></path><path d="M26.7746 28.8201L22.2803 53.056H28.8305L32.1469 31.0632H32.2845L35.5101 53.056H42.0245L37.5577 28.8146L26.7746 28.8201ZM63.3926 28.8201L60.4065 47.3479H60.2634L57.2827 28.8201H47.3996L46.8657 53.056H52.9315L53.0801 31.2668H53.2177L57.2635 53.056H63.4146L67.4659 31.2723H67.598L67.7521 53.056H73.8124L73.2785 28.8146L63.4009 28.8201H63.3926Z" fill="#A3A3A3" style="fill:#A3A3A3;fill:color(display-p3 0.6392 0.6392 0.6392);fill-opacity:1;"></path><path d="M90.8758 46.17C91.1097 46.7562 91.0354 47.5076 90.9226 47.9617C90.7244 48.7708 90.1768 49.5937 88.5612 49.5937C87.0475 49.5937 86.1255 48.7185 86.1255 47.3975V45.0471H79.6221V46.9131C79.6221 52.3184 83.8715 53.9532 88.4319 53.9532C92.9922 53.9532 96.4215 52.4615 96.9967 48.4158C97.2939 46.3214 97.0765 44.9508 96.9747 44.4444C95.9509 39.3693 86.7558 37.8556 86.065 35.0153C85.9686 34.597 85.9604 34.1622 86.043 33.7411C86.2136 32.9622 86.742 32.1145 88.2557 32.1145C89.6786 32.1145 90.5043 32.9897 90.5043 34.3108V35.8135H96.5536V34.1071C96.5536 28.8257 91.8143 28 88.3878 28C84.0752 28 80.5523 29.4284 79.9083 33.3833C79.7377 34.4649 79.7101 35.4309 79.9661 36.6502C81.0202 41.6014 89.6291 43.0353 90.8813 46.17" fill="#A3A3A3" style="fill:#A3A3A3;fill:color(display-p3 0.6392 0.6392 0.6392);fill-opacity:1;"></path><path d="M111.221 49.4258C112.905 49.4258 113.422 48.2644 113.543 47.6727C113.596 47.4112 113.601 47.0589 113.601 46.7452V28.8201H119.736V46.192C119.736 46.7232 119.719 47.2543 119.678 47.7855C119.252 52.3101 115.676 53.7771 111.223 53.7771C106.77 53.7771 103.19 52.3101 102.763 47.7855C102.747 47.5461 102.7 46.6351 102.705 46.192V28.8146H108.84V46.7397C108.834 47.0589 108.845 47.4112 108.898 47.6727C109.011 48.2644 109.536 49.4258 111.226 49.4258M140.856 28.8201L141.187 47.8433H141.054L135.478 28.8201H126.487V52.8H132.446L132.115 33.1163H132.247L138.228 52.8H146.862V28.8201H140.859H140.856ZM161.767 49.1754C163.521 49.1754 164.134 48.0663 164.242 47.4112C164.294 47.1443 164.299 46.803 164.299 46.5002V42.9719H161.811V39.4436H170.398V45.9416C170.398 46.3957 170.387 46.7259 170.313 47.5351C169.914 51.9496 166.086 53.5266 161.789 53.5266C157.493 53.5266 153.67 51.9496 153.266 47.5351C153.197 46.7259 153.181 46.3957 153.181 45.9416V35.7447C153.181 35.3126 153.238 34.5502 153.282 34.1511C153.822 29.6155 157.493 28.1596 161.789 28.1596C166.086 28.1596 169.853 29.6045 170.297 34.1456C170.376 34.919 170.354 35.7392 170.354 35.7392V36.5538H164.242V35.1942C164.242 35.1942 164.242 34.6245 164.167 34.2722C164.055 33.7383 163.598 32.5081 161.743 32.5081C159.888 32.5081 159.461 33.675 159.329 34.2722C159.255 34.5915 159.227 35.0236 159.227 35.4171V46.4975C159.227 46.8057 159.238 47.147 159.285 47.4195C159.398 48.069 160.014 49.1781 161.765 49.1781" fill="#A3A3A3" style="fill:#A3A3A3;fill:color(display-p3 0.6392 0.6392 0.6392);fill-opacity:1;"></path></svg> 