<?xml version="1.0" encoding="UTF-8"?> <svg xmlns="http://www.w3.org/2000/svg" width="154" height="82" viewBox="0 0 154 82" fill="none"><path d="M69.3788 31.8552H72.9969V25.4018H75.5692V22.7881H66.8107V25.4018H69.3809V31.8552H69.3788Z" fill="#A3A3A3" style="fill:#A3A3A3;fill:color(display-p3 0.6392 0.6392 0.6392);fill-opacity:1;"></path><path d="M78.2326 31.8552L80.0758 26.429L81.9191 31.8552H85.4585L81.9874 22.786H78.1642L74.6931 31.8552H78.2326Z" fill="#A3A3A3" style="fill:#A3A3A3;fill:color(display-p3 0.6392 0.6392 0.6392);fill-opacity:1;"></path><path d="M87.1569 31.8552H90.7833V25.4018H93.3452V22.7881H84.5929V25.4018H87.1548V31.8552H87.1569Z" fill="#A3A3A3" style="fill:#A3A3A3;fill:color(display-p3 0.6392 0.6392 0.6392);fill-opacity:1;"></path><path d="M96.0188 31.8552L97.8621 26.429L99.7053 31.8552H103.245L99.7736 22.786H95.9422L92.4794 31.8552H96.0188Z" fill="#A3A3A3" style="fill:#A3A3A3;fill:color(display-p3 0.6392 0.6392 0.6392);fill-opacity:1;"></path><path d="M130.749 38.3376C131.229 39.4084 131.77 40.4542 132.376 41.467L134.742 45.4517H136.456V36.3929H134.922V39.5554C134.922 40.943 134.955 42.109 135.067 43.3102L135.032 43.3185C134.586 42.2726 134.073 41.2537 133.489 40.2844L131.148 36.3929H129.255V45.4621H130.79V42.2146C130.79 40.7235 130.765 39.5326 130.705 38.35L130.749 38.3417V38.3376Z" fill="#A3A3A3" style="fill:#A3A3A3;fill:color(display-p3 0.6392 0.6392 0.6392);fill-opacity:1;"></path><path d="M122.528 42.896H125.409L126.232 45.4579H128.006L125.059 36.3888H122.951L120.045 45.4579H121.76L122.533 42.896H122.528ZM123.498 39.4001C123.659 38.8595 123.798 38.2341 123.926 37.6935H123.951C124.088 38.2154 124.235 38.8326 124.415 39.4001L125.126 41.6368H122.794L123.496 39.4001H123.498Z" fill="#A3A3A3" style="fill:#A3A3A3;fill:color(display-p3 0.6392 0.6392 0.6392);fill-opacity:1;"></path><path d="M95.5385 44.2236C94.7763 44.2153 94.0225 44.0186 93.3452 43.6499L92.9766 45.0209C93.4736 45.3213 94.4677 45.5946 95.4287 45.5946C97.769 45.5946 98.8646 44.3251 98.8646 42.8691C98.8646 41.5664 98.1107 40.7773 96.5326 40.1788C95.3252 39.717 94.8012 39.3897 94.8012 38.6959C94.8012 38.1637 95.2465 37.6065 96.3006 37.6065C96.9261 37.5983 97.5515 37.7515 98.1087 38.0353L98.5042 36.6973C98.032 36.4571 97.3113 36.2521 96.3276 36.2521C94.3642 36.2521 93.1216 37.3746 93.1216 38.8575C93.1216 40.1602 94.0825 40.9575 95.582 41.4898C96.7293 41.9102 97.185 42.312 97.185 42.9892C97.185 43.7265 96.5926 44.2236 95.5385 44.2236Z" fill="#A3A3A3" style="fill:#A3A3A3;fill:color(display-p3 0.6392 0.6392 0.6392);fill-opacity:1;"></path><path d="M71.7379 37.6148C72.3468 37.6066 72.9453 37.7267 73.5024 37.9669L73.8628 36.6477C73.5293 36.4675 72.7568 36.2438 71.6675 36.2438C68.8984 36.2438 66.817 38.0436 66.817 41.0259C66.817 43.7866 68.565 45.5947 71.4458 45.5947C72.5435 45.5947 73.4092 45.3813 73.7944 45.1825L73.519 43.8798C73.082 44.0766 72.3882 44.205 71.7109 44.205C69.7227 44.205 68.5567 42.9354 68.5567 40.9389C68.5567 38.7622 69.8843 37.6128 71.7358 37.6128L71.7379 37.6148Z" fill="#A3A3A3" style="fill:#A3A3A3;fill:color(display-p3 0.6392 0.6392 0.6392);fill-opacity:1;"></path><path d="M118.03 45.46V37.7805H120.644V36.3929H113.778V37.7805H116.367V45.46H118.03Z" fill="#A3A3A3" style="fill:#A3A3A3;fill:color(display-p3 0.6392 0.6392 0.6392);fill-opacity:1;"></path><path d="M151.132 36.3908L150.042 38.7146C149.734 39.3752 149.485 39.9324 149.253 40.5143H149.229C148.98 39.8971 148.748 39.3835 148.439 38.7146L147.36 36.3908H145.465L148.336 41.6886V45.46H149.991V41.6368L153 36.3908H151.132Z" fill="#A3A3A3" style="fill:#A3A3A3;fill:color(display-p3 0.6392 0.6392 0.6392);fill-opacity:1;"></path><path d="M78.6613 36.2438C76.0994 36.2438 74.3411 38.2072 74.3411 40.9928C74.3411 43.7783 75.9607 45.605 78.5246 45.605H78.5412C81.0265 45.605 82.8697 43.8653 82.8697 40.8312C82.8614 38.2424 81.2998 36.2459 78.6613 36.2459V36.2438ZM78.593 44.2754H78.5764C76.99 44.2754 76.0642 42.749 76.0725 40.9493C76.0808 39.1495 76.9382 37.5631 78.593 37.5631C80.2477 37.5631 81.0948 39.1826 81.0948 40.8892C81.1031 42.7925 80.196 44.2754 78.593 44.2754Z" fill="#A3A3A3" style="fill:#A3A3A3;fill:color(display-p3 0.6392 0.6392 0.6392);fill-opacity:1;"></path><path d="M142.808 37.6148C143.417 37.6066 144.016 37.7267 144.573 37.9669L144.933 36.6477C144.6 36.4675 143.827 36.2438 142.738 36.2438C139.969 36.2438 137.888 38.0436 137.888 41.0259C137.888 43.7866 139.636 45.5947 142.516 45.5947C143.614 45.5947 144.48 45.3813 144.865 45.1825L144.59 43.8798C144.153 44.0766 143.459 44.205 142.781 44.205C140.793 44.205 139.627 42.9354 139.627 40.9389C139.627 38.7622 140.955 37.6128 142.806 37.6128L142.808 37.6148Z" fill="#A3A3A3" style="fill:#A3A3A3;fill:color(display-p3 0.6392 0.6392 0.6392);fill-opacity:1;"></path><path d="M110.976 36.3908H109.313V45.46H114.704V44.0621H110.976V36.3908Z" fill="#A3A3A3" style="fill:#A3A3A3;fill:color(display-p3 0.6392 0.6392 0.6392);fill-opacity:1;"></path><path d="M107.426 41.5685V36.3908H105.772V41.6783C105.772 43.4532 105.051 44.2754 103.86 44.2754C102.737 44.2754 102 43.4532 102 41.6783V36.3908H100.347V41.5768C100.347 44.4307 101.71 45.605 103.802 45.605C105.995 45.605 107.426 44.3624 107.426 41.5685Z" fill="#A3A3A3" style="fill:#A3A3A3;fill:color(display-p3 0.6392 0.6392 0.6392);fill-opacity:1;"></path><path d="M91.4771 36.3908H89.9424V39.5534C89.9424 40.941 89.9776 42.107 90.0895 43.3082L90.0542 43.3165C89.609 42.2706 89.0954 41.2516 88.5113 40.2824L86.171 36.3908H84.276V45.46H85.8106V42.2126C85.8106 40.7214 85.7858 39.5306 85.7257 38.348L85.7692 38.3397C86.2497 39.4104 86.7903 40.4563 87.3971 41.4691L89.7622 45.4538H91.4771V36.395V36.3908Z" fill="#A3A3A3" style="fill:#A3A3A3;fill:color(display-p3 0.6392 0.6392 0.6392);fill-opacity:1;"></path><path d="M98.5642 49.9833H96.9115V59.0525H98.5642V49.9833Z" fill="#A3A3A3" style="fill:#A3A3A3;fill:color(display-p3 0.6392 0.6392 0.6392);fill-opacity:1;"></path><path d="M85.5187 54.8005V54.7653C86.3678 54.465 87.1548 53.6759 87.1548 52.5203C87.1548 51.7498 86.8732 51.1223 86.3844 50.7123C85.7755 50.2069 84.7296 49.9832 83.6071 49.9832C82.7766 49.9749 81.9358 50.035 81.1218 50.18V59.0503H82.7497V55.3556H83.5802C84.5142 55.3804 84.943 55.7594 85.1998 56.9316C85.4483 58.0459 85.6637 58.7915 85.8004 59.0566H87.4883C87.3081 58.7045 87.0596 57.6772 86.7779 56.5444C86.546 55.6621 86.169 55.0449 85.5187 54.7964V54.8005ZM83.7189 54.1502H82.7497V51.3046C83.0831 51.2362 83.4269 51.2093 83.7707 51.2197C84.8332 51.2197 85.5187 51.6815 85.5187 52.659C85.5187 53.56 84.8332 54.1502 83.7189 54.1502Z" fill="#A3A3A3" style="fill:#A3A3A3;fill:color(display-p3 0.6392 0.6392 0.6392);fill-opacity:1;"></path><path d="M92.848 54.1337C92.496 55.2313 92.1625 56.3455 91.9223 57.408H91.8974C91.6655 56.3103 91.3486 55.2479 91.0069 54.1088L89.7725 49.9853H87.9645L90.895 59.0545H92.7983L95.936 49.9853H94.1714L92.8522 54.1337H92.848Z" fill="#A3A3A3" style="fill:#A3A3A3;fill:color(display-p3 0.6392 0.6392 0.6392);fill-opacity:1;"></path><path d="M110.023 55.0325H113.443V53.678H110.023V51.346H113.641V49.9833H108.371V59.0525H113.849V57.6897H110.025V55.0325H110.023Z" fill="#A3A3A3" style="fill:#A3A3A3;fill:color(display-p3 0.6392 0.6392 0.6392);fill-opacity:1;"></path><path d="M104.914 51.2114C105.523 51.2031 106.124 51.3232 106.681 51.5635L107.041 50.2442C106.708 50.064 105.935 49.8403 104.846 49.8403C102.077 49.8403 99.9954 51.6401 99.9954 54.6224C99.9954 57.3831 101.743 59.1912 104.624 59.1912C105.722 59.1912 106.588 58.9779 106.973 58.779L106.699 57.4763C106.262 57.6731 105.569 57.8015 104.891 57.8015C102.903 57.8015 101.737 56.5319 101.737 54.5354C101.729 52.367 103.058 51.2093 104.916 51.2093L104.914 51.2114Z" fill="#A3A3A3" style="fill:#A3A3A3;fill:color(display-p3 0.6392 0.6392 0.6392);fill-opacity:1;"></path><path d="M70.3668 53.7733C69.1594 53.3114 68.6354 52.9842 68.6354 52.2904C68.6354 51.7581 69.0807 51.201 70.1349 51.201C70.7603 51.1927 71.3858 51.346 71.9429 51.6297L72.3385 50.2918C71.8663 50.0516 71.1476 49.8465 70.1618 49.8465C68.1984 49.8465 66.9558 50.969 66.9558 52.4519C66.9558 53.7546 67.9147 54.552 69.4162 55.0843C70.5657 55.5047 71.0192 55.9065 71.0192 56.5837C71.0192 57.3293 70.4269 57.8181 69.3727 57.8181C68.6106 57.8098 67.8546 57.613 67.1877 57.2444L66.8191 58.6154C67.3161 58.9157 68.3103 59.1891 69.2712 59.1891C71.6115 59.1891 72.7071 57.9216 72.7071 56.4636C72.6988 55.1692 71.945 54.3718 70.3668 53.7733Z" fill="#A3A3A3" style="fill:#A3A3A3;fill:color(display-p3 0.6392 0.6392 0.6392);fill-opacity:1;"></path><path d="M75.8425 55.0325H79.2619V53.678H75.8425V51.346H79.469V49.9833H74.1898V59.0525H79.6657V57.6897H75.8425V55.0325Z" fill="#A3A3A3" style="fill:#A3A3A3;fill:color(display-p3 0.6392 0.6392 0.6392);fill-opacity:1;"></path><path d="M118.457 53.7733C117.249 53.3114 116.725 52.9842 116.725 52.2904C116.725 51.7581 117.171 51.201 118.225 51.201C118.85 51.1927 119.476 51.346 120.033 51.6297L120.426 50.2918C119.956 50.0516 119.236 49.8465 118.25 49.8465C116.286 49.8465 115.044 50.969 115.044 52.4519C115.044 53.7546 116.003 54.552 117.504 55.0843C118.654 55.5047 119.107 55.9065 119.107 56.5837C119.107 57.3293 118.517 57.8181 117.461 57.8181C116.688 57.8098 115.945 57.613 115.265 57.2444L114.897 58.6154C115.394 58.9157 116.388 59.1891 117.349 59.1891C119.689 59.1891 120.785 57.9216 120.785 56.4636C120.785 55.1692 120.023 54.3718 118.453 53.7733H118.457Z" fill="#A3A3A3" style="fill:#A3A3A3;fill:color(display-p3 0.6392 0.6392 0.6392);fill-opacity:1;"></path><path d="M53.7982 43.8323L49.4862 40.8334C49.4345 40.7981 49.3827 40.7567 49.333 40.7215C47.7548 39.5555 47.0693 38.4765 47.0693 37.2069C47.0693 35.5273 48.4404 34.4731 50.3872 34.4731C52.8559 34.4731 54.0219 35.6308 55.4861 35.6308C56.6438 35.6308 57.4308 34.8418 57.4308 33.6861C57.4308 32.8453 57.0104 32.1597 55.9045 31.6378C54.1648 30.797 52.2698 30.4801 50.2215 30.4801C48.0696 30.4801 46.1767 31.1139 44.8036 32.1597C44.5302 32.3731 44.2547 32.605 44.0062 32.8453L43.971 32.8805C42.4115 34.5601 41.1005 37.0288 40.0629 40.4751L38.8534 44.4701C36.6933 51.5159 33.2822 54.8834 27.9596 54.8834C22.1234 54.8834 18.4369 50.8283 18.4369 44.8388C18.4369 38.8493 21.9929 34.879 27.154 34.7424H27.4377C29.1857 34.7341 30.9088 35.111 32.487 35.8483C33.1725 36.1652 33.7462 36.2687 34.2784 36.2687C35.5376 36.2687 36.3785 35.4196 36.3785 34.1604C36.3785 33.3713 35.9063 32.5843 34.8024 32.0603C32.8059 31.0579 30.2254 30.4842 27.4398 30.4842C19.1265 30.4842 13.3918 36.3723 13.3918 44.9527C13.3918 47.2164 13.7935 49.2895 14.5495 51.1162C13.4518 53.4896 11.7888 54.7426 9.61206 54.7426C6.97974 54.7426 5.2504 53.2162 5.2504 49.7451V34.8998H11.4035C12.8264 34.8998 13.7687 34.0589 13.7687 32.8515C13.7687 31.644 12.8264 30.8032 11.4035 30.8032H5.2504V25.4371C5.2504 23.861 4.19624 22.8047 2.72164 22.8047C1.24705 22.8047 0.192871 23.8589 0.192871 25.4371V50.3188C0.192871 56.1033 3.51071 59.156 9.13157 59.156C10.3059 59.156 11.4719 58.9676 12.5861 58.5824H12.6027C14.4459 57.8886 15.9288 56.6791 16.9747 54.9311C19.4765 57.6317 23.1879 59.2078 27.8084 59.2078C30.2254 59.2078 32.3254 58.7356 34.2204 57.7415H34.2287C38.0685 55.745 40.8023 51.6899 42.6973 45.485L43.8033 41.8585C44.5405 42.8444 45.5781 43.7784 46.9575 44.7477L50.9008 47.4815C51.4828 47.8853 52.015 48.2954 52.5121 48.6992C53.2224 49.48 53.4295 50.3271 53.4295 51.3212C53.4295 53.5849 51.6381 55.1092 49.0679 55.1092C46.4977 55.1092 44.4908 53.85 43.3331 53.85C42.1754 53.85 41.3884 54.6391 41.3884 55.7947C41.3884 56.6356 41.8088 57.3211 42.9148 57.843C44.4411 58.5803 46.9099 59.214 49.1197 59.214C51.9053 59.214 54.2186 58.3732 55.8568 56.9007C55.9335 56.8323 56.0101 56.764 56.0805 56.6873C57.4184 55.3329 58.2241 53.4731 58.2241 51.3295C58.2241 48.1587 56.9649 46.0504 53.8024 43.8385L53.7982 43.8323Z" fill="#A3A3A3" style="fill:#A3A3A3;fill:color(display-p3 0.6392 0.6392 0.6392);fill-opacity:1;"></path></svg> 