<?xml version="1.0" encoding="UTF-8"?> <svg xmlns="http://www.w3.org/2000/svg" width="132" height="82" viewBox="0 0 132 82" fill="none"><g clip-path="url(#clip0_365_874)"><path d="M29.4124 39.4084C29.2807 42.2502 27.2858 46.1648 23.4465 51.1144C19.4755 56.2899 16.1067 58.8682 13.3402 58.8682C11.6276 58.8682 10.1972 57.2874 9.01159 54.1444C8.22115 51.2462 7.43072 48.3667 6.64028 45.4873C5.77456 42.3443 4.83357 40.7635 3.81729 40.7635C3.59145 40.7635 2.83865 41.2151 1.52126 42.1373L0.1474 40.3682C1.59654 39.1073 3.00803 37.8275 4.41953 36.5478C6.33916 34.8916 7.7883 34.0071 8.76693 33.913C11.0441 33.6872 12.4368 35.2492 12.9826 38.5803C13.5472 42.175 13.9424 44.4145 14.1683 45.2991C14.827 48.2914 15.5421 49.7782 16.3325 49.7782C16.9536 49.7782 17.857 48.7996 19.0991 46.8799C20.3224 44.9415 20.9811 43.4735 21.0752 42.4573C21.2446 40.7823 20.5859 39.9542 19.0991 39.9542C18.4027 39.9542 17.6688 40.1236 16.9348 40.4435C18.3651 35.7385 21.1128 33.4425 25.1779 33.5742C28.1891 33.6683 29.6006 35.6068 29.4312 39.4272" fill="#A3A3A3" style="fill:#A3A3A3;fill:color(display-p3 0.6392 0.6392 0.6392);fill-opacity:1;"></path><path d="M41.777 25.2747C41.7394 26.3662 41.1936 27.4201 40.1397 28.4176C38.954 29.5468 37.5613 30.1114 35.9428 30.1114C33.4398 30.1114 32.2353 29.0198 32.3294 26.8367C32.367 25.7075 33.0445 24.616 34.3243 23.5621C35.6229 22.5081 37.0532 22 38.6341 22C39.5563 22 40.3279 22.3576 40.9301 23.0727C41.5512 23.7879 41.8335 24.5219 41.777 25.2558V25.2747ZM47.4794 48.649C46.2561 50.9639 44.5624 53.0717 42.4169 54.9537C39.481 57.4944 36.5451 58.7553 33.6091 58.7553C32.2541 58.7553 31.219 58.3225 30.485 57.4379C29.7699 56.5534 29.4311 55.4242 29.4688 54.0315C29.5064 52.5824 29.9581 50.3616 30.8238 47.3316C31.6707 44.3204 32.1036 42.6831 32.1036 42.4761C32.1036 41.3281 31.7083 40.7635 30.9179 40.7635C30.6544 40.7635 29.9016 41.2152 28.6783 42.1373L27.1727 40.3683C28.5654 39.1073 29.9769 37.8276 31.3884 36.5478C33.2704 34.8917 34.6819 34.0071 35.6041 33.913C37.0532 33.7813 38.1071 34.2141 38.7846 35.1928C39.4622 36.1714 39.7068 37.4512 39.5374 39.0132C38.9728 41.6668 38.3518 45.0544 37.6931 49.1572C37.6554 51.0392 38.333 51.9802 39.7256 51.9802C40.3467 51.9802 41.4382 51.3403 43.0191 50.0417C44.3365 48.969 45.4092 47.9527 46.2373 46.9929L47.4794 48.6302" fill="#A3A3A3" style="fill:#A3A3A3;fill:color(display-p3 0.6392 0.6392 0.6392);fill-opacity:1;"></path><path d="M88.5257 48.649C87.3024 50.9638 85.6086 53.0717 83.4631 54.9537C80.5272 57.4944 77.5913 58.7553 74.6554 58.7553C71.7195 58.7553 70.4209 57.1744 70.515 54.0315C70.5527 52.62 70.835 50.945 71.3431 48.9689C71.8512 46.9928 72.1147 45.4684 72.1712 44.3769C72.2088 42.7207 71.7195 41.8738 70.6468 41.8738C69.4987 41.8738 68.1437 43.2289 66.5628 45.9389C64.8879 48.7807 63.9845 51.5473 63.8528 54.2197C63.7587 56.1017 63.9469 57.5508 64.3985 58.5671C61.3497 58.6612 59.2042 58.1531 57.9809 57.0615C56.8894 56.1017 56.3812 54.502 56.4753 52.2624C56.513 50.8698 56.7388 49.4583 57.1152 48.0656C57.4916 46.6729 57.7175 45.412 57.7551 44.3204C57.8492 42.7019 57.247 41.8926 55.986 41.8926C54.8945 41.8926 53.7088 43.1348 52.4291 45.6378C51.1493 48.1409 50.453 50.738 50.3212 53.4481C50.2271 55.9135 50.3965 57.6073 50.7917 58.5671C47.7805 58.6612 45.6539 58.0213 44.3929 56.6663C43.339 55.5371 42.8685 53.8057 42.9626 51.4908C43.0003 50.3616 43.2073 48.7807 43.5649 46.7482C43.9224 44.7156 44.1295 43.1348 44.1671 42.0056C44.2612 41.2151 44.0542 40.8199 43.5837 40.8199C43.3202 40.8199 42.5674 41.2716 41.3441 42.1561L39.7632 40.387C39.9891 40.2177 41.3629 38.9379 43.9036 36.5666C45.748 34.854 46.9901 33.9883 47.6488 33.9318C48.7968 33.8377 49.7002 34.3082 50.4153 35.3433C51.1117 36.3784 51.4692 37.5641 51.4692 38.9191C51.4692 39.3519 51.4316 39.766 51.3375 40.1612C51.9962 39.1637 52.7678 38.2792 53.6335 37.5264C55.6473 35.7762 57.9057 34.7975 60.4087 34.5717C62.5542 34.4023 64.0974 34.8916 65.0008 36.0773C65.7536 37.0371 66.0923 38.4298 66.0547 40.2177C66.3558 39.9542 66.6946 39.6719 67.0522 39.3708C68.0496 38.1851 69.0471 37.2441 70.0069 36.5478C71.6254 35.3621 73.3192 34.7034 75.0694 34.5717C77.1773 34.4023 78.6829 34.8916 79.6051 36.0773C80.3955 37.0371 80.7343 38.411 80.659 40.1988C80.6213 41.4221 80.3202 43.21 79.7744 45.5437C79.2287 47.8774 78.9464 49.2136 78.9464 49.5712C78.9087 50.4934 78.984 51.1144 79.2098 51.472C79.4357 51.8296 79.9626 51.9989 80.7907 51.9989C81.4118 51.9989 82.5033 51.3591 84.0842 50.0605C85.4016 48.9878 86.4743 47.9715 87.3024 47.0117L88.5445 48.649" fill="#A3A3A3" style="fill:#A3A3A3;fill:color(display-p3 0.6392 0.6392 0.6392);fill-opacity:1;"></path><path d="M98.2557 41.7045C98.2934 40.5377 97.8229 39.9354 96.8066 39.9354C95.4892 39.9354 94.153 40.8388 92.798 42.6455C91.4429 44.4522 90.7466 46.1836 90.6901 47.8398C90.6713 47.8398 90.6713 48.1221 90.6901 48.6867C92.8356 47.8963 94.6988 46.7106 96.2608 45.0921C97.5218 43.6994 98.1805 42.5702 98.2369 41.6857L98.2557 41.7045ZM113.18 48.5738C111.919 50.6816 109.416 52.7706 105.69 54.8784C101.041 57.5509 96.3361 58.8871 91.5559 58.8871C88.0177 58.8871 85.4582 57.7014 83.9338 55.3301C82.8422 53.7116 82.3153 51.7732 82.3529 49.5524C82.3905 45.9954 83.9714 42.6267 87.0767 39.4273C90.4831 35.9268 94.5294 34.1765 99.1591 34.1765C103.45 34.1765 105.727 35.9268 105.991 39.4273C106.16 41.648 104.937 43.9441 102.302 46.3154C99.4979 48.8937 95.9597 50.531 91.7252 51.2274C92.5157 52.3189 93.7013 52.8647 95.2634 52.8647C98.4251 52.8647 101.85 52.0555 105.577 50.4558C108.249 49.3266 110.357 48.1597 111.881 46.9364L113.124 48.5738" fill="#A3A3A3" style="fill:#A3A3A3;fill:color(display-p3 0.6392 0.6392 0.6392);fill-opacity:1;"></path><path d="M123.587 43.9252C123.625 42.7395 123.474 41.648 123.098 40.6694C122.722 39.6907 122.195 39.1826 121.479 39.1826C119.24 39.1826 117.396 40.3871 115.965 42.8148C114.742 44.7909 114.083 46.8988 113.989 49.1383C113.951 50.2299 114.14 51.2085 114.573 52.0366C115.062 52.9964 115.739 53.4857 116.605 53.4857C118.581 53.4857 120.256 52.3189 121.668 50.004C122.853 48.0656 123.474 46.0519 123.568 43.944L123.587 43.9252ZM131.002 44.1699C130.833 48.1973 129.346 51.679 126.542 54.5961C123.738 57.5132 120.256 59 116.097 59C112.634 59 109.999 57.8896 108.211 55.65C106.894 53.9939 106.179 51.9049 106.047 49.4206C105.821 45.6566 107.176 42.1938 110.131 39.0508C113.293 35.5503 117.245 33.8001 122.025 33.8001C125.093 33.8001 127.408 34.8352 128.989 36.8865C130.475 38.7685 131.153 41.1963 131.021 44.1699" fill="#A3A3A3" style="fill:#A3A3A3;fill:color(display-p3 0.6392 0.6392 0.6392);fill-opacity:1;"></path></g><defs><clipPath id="clip0_365_874"><rect width="130.855" height="82" fill="white" style="fill:white;fill-opacity:1;" transform="translate(0.166199)"></rect></clipPath></defs></svg> 