<?xml version="1.0" encoding="UTF-8"?> <svg xmlns="http://www.w3.org/2000/svg" width="73" height="82" viewBox="0 0 73 82" fill="none"><path d="M36.4856 73.1291C18.7035 73.1291 4.13524 58.4893 4.13524 40.7072C4.13524 36.7083 4.84949 32.9233 6.20651 29.352L25.1304 67.4157C25.3449 67.9155 25.7017 68.3438 26.273 68.3438C26.8442 68.3438 27.201 67.9155 27.4155 67.4157L36.1282 47.9199C36.1997 47.7054 36.3426 47.4916 36.5564 47.4916C36.7702 47.4916 36.8424 47.7061 36.9847 47.9199L45.6974 67.4157C45.9119 67.9155 46.2686 68.3438 46.8399 68.3438C47.4112 68.3438 47.7679 67.9155 47.9824 67.4157L66.9078 29.352C68.2648 32.9226 68.979 36.7076 68.979 40.7072C68.836 58.4893 54.2677 73.1291 36.4856 73.1291V73.1291ZM36.4856 33.3515C36.2712 33.3515 36.1997 33.1371 36.0574 32.9233L25.9162 10.0699C29.2015 8.85586 32.7721 8.2131 36.4856 8.2131C40.1992 8.2131 43.7698 8.85586 47.0551 10.0699L36.9139 32.9226C36.7709 33.2086 36.6994 33.3508 36.4856 33.3508V33.3515ZM26.1307 56.847C25.9162 56.847 25.8447 56.6325 25.7024 56.4187L9.27662 23.2819C12.2044 18.7825 16.1325 14.9975 20.9171 12.3556L32.7721 38.7074C32.9151 39.1357 33.2718 39.2787 33.6293 39.2787H39.3427C39.7709 39.2787 40.0569 39.2072 40.2707 38.7074L52.125 12.3556C56.8381 14.9982 60.8376 18.7832 63.7655 23.2819L47.1974 56.418C47.1259 56.6325 46.9829 56.8463 46.7691 56.8463C46.5553 56.8463 46.4831 56.6318 46.3408 56.418L40.1277 42.278C39.9132 41.7782 39.6279 41.7067 39.1997 41.7067H33.4863C33.0581 41.7067 32.7721 41.7782 32.5583 42.278L26.5597 56.418C26.4882 56.6325 26.3452 56.8463 26.1314 56.8463L26.1307 56.847ZM36.4856 76.4144C56.2675 76.4144 72.1928 60.4891 72.1928 40.7072C72.1928 20.9253 56.2675 5 36.4856 5C16.7038 5 0.778442 20.9253 0.778442 40.7072C0.778442 60.4891 16.7038 76.4144 36.4856 76.4144Z" fill="#A3A3A3" style="fill:#A3A3A3;fill:color(display-p3 0.6392 0.6392 0.6392);fill-opacity:1;"></path></svg> 